<?xml version="1.0" encoding="UTF-8"?><svg id="Layer_2" xmlns="http://www.w3.org/2000/svg" viewBox="0 0 492.28 188.39"><g id="Layer_1-2"><rect width="492.28" height="188.39" fill="#262522"/><path d="M141.89,74.11l-2.34,5.64h-10.8l-4.8,11.58h11.46l-2.34,5.64h-11.46l-4.8,11.52h12.9l-2.34,5.64h-10.8c-.96,0-1.79-.15-2.49-.45-.7-.3-1.28-.69-1.74-1.17s-.8-1.01-1.02-1.59c-.22-.58-.33-1.17-.33-1.77,0-.44.03-.8.09-1.08.06-.28.17-.62.33-1.02l11.28-27.3c-.48-.08-.88-.21-1.2-.39-.32-.18-.48-.49-.48-.93,0-.2.03-.38.09-.54.06-.16.13-.34.21-.54l1.32-3.24h19.26Z" fill="#fff"/><path d="M152.09,74.11v15.3l10.08-15.3h6.42l-26.16,40.02h-6.48l10.44-15.72v-22.38c0-.64.13-1.12.39-1.44.26-.32.73-.48,1.41-.48h3.9Z" fill="#fff"/><path d="M193.91,74.11l-2.34,5.64h-10.8l-4.8,11.58h11.46l-2.34,5.64h-11.46l-4.8,11.52h12.9l-2.34,5.64h-10.8c-.96,0-1.79-.15-2.49-.45-.7-.3-1.28-.69-1.74-1.17s-.8-1.01-1.02-1.59c-.22-.58-.33-1.17-.33-1.77,0-.44.03-.8.09-1.08.06-.28.17-.62.33-1.02l11.28-27.3c-.48-.08-.88-.21-1.2-.39-.32-.18-.48-.49-.48-.93,0-.2.03-.38.09-.54.06-.16.13-.34.21-.54l1.32-3.24h19.26Z" fill="#fff"/><path d="M201.41,74.11h6.24c1.68,0,3.24.14,4.68.42,1.44.28,2.84.96,4.2,2.04,2.2,1.72,3.3,4.14,3.3,7.26,0,2.44-.34,4.91-1.02,7.41-.68,2.5-1.62,4.9-2.82,7.2-1.2,2.3-2.6,4.45-4.2,6.45-1.6,2-3.31,3.74-5.13,5.22-1.82,1.48-3.71,2.65-5.67,3.51-1.96.86-3.9,1.29-5.82,1.29-.92,0-1.74-.14-2.46-.42-.72-.28-1.32-.65-1.8-1.11-.48-.46-.85-.96-1.11-1.5-.26-.54-.39-1.09-.39-1.65s.05-1.03.15-1.41c.1-.38.25-.81.45-1.29l11.52-27.78c-.48-.08-.88-.21-1.2-.39s-.48-.49-.48-.93c0-.36.08-.72.24-1.08l1.32-3.24ZM207.47,79.99l-12.06,29.1c2.88-.2,5.39-1.15,7.53-2.85,2.14-1.7,4.21-4.21,6.21-7.53.72-1.16,1.37-2.24,1.95-3.24.58-1,1.08-2,1.5-3,.42-1,.74-2.05.96-3.15.22-1.1.33-2.33.33-3.69,0-.6,0-1.23.03-1.89.02-.66-.25-1.39-.81-2.19-.44-.68-.96-1.11-1.56-1.29-.6-.18-1.32-.27-2.16-.27h-1.92Z" fill="#fff"/><path d="M240.95,74.11c3.24,0,5.68.84,7.32,2.52,1.64,1.68,2.46,3.9,2.46,6.66,0,1.56-.33,3.17-.99,4.83-.66,1.66-1.59,3.23-2.79,4.71-1.2,1.48-2.65,2.79-4.35,3.93-1.7,1.14-3.59,1.97-5.67,2.49l4.98,16.26c.04.16.07.27.09.33.02.06.03.17.03.33,0,.36-.03.69-.09.99-.06.3-.37.55-.93.75l-3.84,1.2-6.48-20.16-6.3,15.18h-3.48c-.64,0-1.15-.1-1.53-.3-.38-.2-.57-.54-.57-1.02,0-.2.03-.38.09-.54.06-.16.13-.34.21-.54l13.26-31.98c-1.24-.08-1.86-.52-1.86-1.32,0-.36.08-.72.24-1.08l1.38-3.24h8.82ZM238.55,79.87l-5.7,13.86c.08,0,.23.02.45.06.22.04.37.06.45.06,1.32,0,2.48-.13,3.48-.39,1-.26,2.02-.83,3.06-1.71,1.32-1.12,2.4-2.43,3.24-3.93.84-1.5,1.26-2.81,1.26-3.93,0-1.28-.25-2.27-.75-2.97-.5-.7-1.39-1.05-2.67-1.05h-2.82Z" fill="#fff"/><path d="M247.85,104.59c0-3.12.57-6.5,1.71-10.14,1.14-3.64,2.87-7.22,5.19-10.74,4.72-7.2,10-10.8,15.84-10.8,1,0,1.96.24,2.88.72.92.48,1.73,1.2,2.43,2.16.7.96,1.26,2.15,1.68,3.57.42,1.42.63,3.05.63,4.89,0,3.04-.54,6.24-1.62,9.6-1.08,3.36-2.7,6.76-4.86,10.2-2.4,3.76-4.88,6.58-7.44,8.46-2.56,1.88-5.32,2.82-8.28,2.82-1.16,0-2.23-.25-3.21-.75-.98-.5-1.84-1.21-2.58-2.13-.74-.92-1.32-2.04-1.74-3.36s-.63-2.82-.63-4.5ZM269.09,78.91c-3.32,0-6.64,2.76-9.96,8.28-3.64,6-5.46,11.48-5.46,16.44,0,1.88.29,3.37.87,4.47.58,1.1,1.39,1.65,2.43,1.65,1.92,0,3.6-.65,5.04-1.95,1.44-1.3,2.92-3.21,4.44-5.73,1.96-3.24,3.47-6.27,4.53-9.09,1.06-2.82,1.59-5.55,1.59-8.19,0-1.96-.33-3.43-.99-4.41-.66-.98-1.49-1.47-2.49-1.47Z" fill="#fff"/><path d="M300.71,74.11c2.76,0,4.98.82,6.66,2.46,1.68,1.64,2.52,4,2.52,7.08,0,.96-.14,1.98-.42,3.06-.28,1.08-.7,2.16-1.26,3.24-.56,1.08-1.25,2.12-2.07,3.12-.82,1-1.77,1.92-2.85,2.76-1.16.92-2.3,1.63-3.42,2.13-1.12.5-2.25.88-3.39,1.14-1.14.26-2.29.42-3.45.48-1.16.06-2.36.11-3.6.15l-5.94,14.4h-3.42c-.6,0-1.08-.1-1.44-.3-.36-.2-.54-.54-.54-1.02,0-.2.04-.41.12-.63.08-.22.14-.37.18-.45l13.26-31.98c-.56-.04-1-.16-1.32-.36-.32-.2-.48-.52-.48-.96,0-.2.03-.38.09-.54.06-.16.13-.34.21-.54l1.32-3.24h9.24ZM297.59,79.99l-5.7,13.8c.08,0,.25.02.51.06.26.04.45.06.57.06,1.72,0,3.27-.36,4.65-1.08,1.38-.72,2.55-1.59,3.51-2.61s1.69-2.09,2.19-3.21c.5-1.12.75-2.1.75-2.94,0-1.32-.25-2.33-.75-3.03-.5-.7-1.39-1.05-2.67-1.05h-3.06Z" fill="#fff"/><path d="M329.87,74.11c2.76,0,4.98.82,6.66,2.46,1.68,1.64,2.52,4,2.52,7.08,0,.96-.14,1.98-.42,3.06-.28,1.08-.7,2.16-1.26,3.24-.56,1.08-1.25,2.12-2.07,3.12-.82,1-1.77,1.92-2.85,2.76-1.16.92-2.3,1.63-3.42,2.13-1.12.5-2.25.88-3.39,1.14-1.14.26-2.29.42-3.45.48-1.16.06-2.36.11-3.6.15l-5.94,14.4h-3.42c-.6,0-1.08-.1-1.44-.3-.36-.2-.54-.54-.54-1.02,0-.2.04-.41.12-.63.08-.22.14-.37.18-.45l13.26-31.98c-.56-.04-1-.16-1.32-.36-.32-.2-.48-.52-.48-.96,0-.2.03-.38.09-.54.06-.16.13-.34.21-.54l1.32-3.24h9.24ZM326.75,79.99l-5.7,13.8c.08,0,.25.02.51.06.26.04.45.06.57.06,1.72,0,3.27-.36,4.65-1.08,1.38-.72,2.55-1.59,3.51-2.61.96-1.02,1.69-2.09,2.19-3.21.5-1.12.75-2.1.75-2.94,0-1.32-.25-2.33-.75-3.03-.5-.7-1.39-1.05-2.67-1.05h-3.06Z" fill="#fff"/><path d="M367.31,74.11l-2.34,5.64h-10.8l-4.8,11.58h11.46l-2.34,5.64h-11.46l-4.8,11.52h12.9l-2.34,5.64h-10.8c-.96,0-1.79-.15-2.49-.45-.7-.3-1.28-.69-1.74-1.17s-.8-1.01-1.02-1.59c-.22-.58-.33-1.17-.33-1.77,0-.44.03-.8.09-1.08.06-.28.17-.62.33-1.02l11.28-27.3c-.48-.08-.88-.21-1.2-.39-.32-.18-.48-.49-.48-.93,0-.2.03-.38.09-.54.06-.16.13-.34.21-.54l1.32-3.24h19.26Z" fill="#fff"/><path d="M383.93,74.11c3.24,0,5.68.84,7.32,2.52,1.64,1.68,2.46,3.9,2.46,6.66,0,1.56-.33,3.17-.99,4.83-.66,1.66-1.59,3.23-2.79,4.71-1.2,1.48-2.65,2.79-4.35,3.93-1.7,1.14-3.59,1.97-5.67,2.49l4.98,16.26c.04.16.07.27.09.33.02.06.03.17.03.33,0,.36-.03.69-.09.99-.06.3-.37.55-.93.75l-3.84,1.2-6.48-20.16-6.3,15.18h-3.48c-.64,0-1.15-.1-1.53-.3-.38-.2-.57-.54-.57-1.02,0-.2.03-.38.09-.54.06-.16.13-.34.21-.54l13.26-31.98c-1.24-.08-1.86-.52-1.86-1.32,0-.36.08-.72.24-1.08l1.38-3.24h8.82ZM381.53,79.87l-5.7,13.86c.08,0,.23.02.45.06.22.04.37.06.45.06,1.32,0,2.48-.13,3.48-.39,1-.26,2.02-.83,3.06-1.71,1.32-1.12,2.4-2.43,3.24-3.93s1.26-2.81,1.26-3.93c0-1.28-.25-2.27-.75-2.97-.5-.7-1.39-1.05-2.67-1.05h-2.82Z" fill="#fff"/></g></svg>
