<?xml version="1.0" encoding="UTF-8"?><svg id="Layer_2" xmlns="http://www.w3.org/2000/svg" viewBox="0 0 623.15 63.94"><g id="Layer_1-2"><path d="M12,1.2h6.24c1.68,0,3.24.14,4.68.42,1.44.28,2.84.96,4.2,2.04,2.2,1.72,3.3,4.14,3.3,7.26,0,2.44-.34,4.91-1.02,7.41-.68,2.5-1.62,4.9-2.82,7.2-1.2,2.3-2.6,4.45-4.2,6.45-1.6,2-3.31,3.74-5.13,5.22-1.82,1.48-3.71,2.65-5.67,3.51-1.96.86-3.9,1.29-5.82,1.29-.92,0-1.74-.14-2.46-.42-.72-.28-1.32-.65-1.8-1.11s-.85-.96-1.11-1.5c-.26-.54-.39-1.09-.39-1.65s.05-1.03.15-1.41c.1-.38.25-.81.45-1.29L12.12,6.84c-.48-.08-.88-.21-1.2-.39-.32-.18-.48-.49-.48-.93,0-.36.08-.72.24-1.08l1.32-3.24ZM18.06,7.08l-12.06,29.1c2.88-.2,5.39-1.15,7.53-2.85,2.14-1.7,4.21-4.21,6.21-7.53.72-1.16,1.37-2.24,1.95-3.24.58-1,1.08-2,1.5-3,.42-1,.74-2.05.96-3.15.22-1.1.33-2.33.33-3.69,0-.6,0-1.23.03-1.89.02-.66-.25-1.39-.81-2.19-.44-.68-.96-1.11-1.56-1.29s-1.32-.27-2.16-.27h-1.92Z"/><path d="M29.88,31.68c0-3.12.57-6.5,1.71-10.14,1.14-3.64,2.87-7.22,5.19-10.74C41.5,3.6,46.78,0,52.62,0c1,0,1.96.24,2.88.72.92.48,1.73,1.2,2.43,2.16.7.96,1.26,2.15,1.68,3.57.42,1.42.63,3.05.63,4.89,0,3.04-.54,6.24-1.62,9.6s-2.7,6.76-4.86,10.2c-2.4,3.76-4.88,6.58-7.44,8.46-2.56,1.88-5.32,2.82-8.28,2.82-1.16,0-2.23-.25-3.21-.75-.98-.5-1.84-1.21-2.58-2.13-.74-.92-1.32-2.04-1.74-3.36-.42-1.32-.63-2.82-.63-4.5ZM51.12,6c-3.32,0-6.64,2.76-9.96,8.28-3.64,6-5.46,11.48-5.46,16.44,0,1.88.29,3.37.87,4.47.58,1.1,1.39,1.65,2.43,1.65,1.92,0,3.6-.65,5.04-1.95s2.92-3.21,4.44-5.73c1.96-3.24,3.47-6.27,4.53-9.09,1.06-2.82,1.59-5.55,1.59-8.19,0-1.96-.33-3.43-.99-4.41-.66-.98-1.49-1.47-2.49-1.47Z"/><path d="M76.5,1.26l-6.9,24.9,15.54-23.7c.16-.24.29-.44.39-.6.1-.16.22-.29.36-.39.14-.1.32-.16.54-.18.22-.02.55-.03.99-.03h4.98l-4.26,24.9L101.1,1.26h6.24l-20.34,39.96h-5.82c-.52,0-.95-.11-1.29-.33-.34-.22-.51-.55-.51-.99,0-.16,0-.29.03-.39.02-.1.05-.23.09-.39l5.52-27.12-18.06,29.22h-5.46c-1.2,0-1.8-.46-1.8-1.38,0-.08.02-.24.06-.48.04-.24.08-.4.12-.48L70.68,1.26h5.82Z"/><path d="M122.88,1.2l-.42,24,9.9-24h6.06l-16.56,40.02h-3.66c-.72,0-1.17-.15-1.35-.45s-.27-.73-.27-1.29l.3-23.82-10.56,25.56h-3.36c-.6,0-1.08-.1-1.44-.3s-.54-.54-.54-1.02c0-.2.04-.41.12-.63.08-.22.14-.37.18-.45L116.88,1.2h6Z"/><path d="M155.28,1.2l-14.22,34.38h13.14l-2.34,5.64h-11.1c-1.68,0-3.03-.43-4.05-1.29s-1.53-2.13-1.53-3.81c0-.6.14-1.22.42-1.86L149.28,1.2h6Z"/><path d="M157.8,31.68c0-3.12.57-6.5,1.71-10.14,1.14-3.64,2.87-7.22,5.19-10.74,4.72-7.2,10-10.8,15.84-10.8,1,0,1.96.24,2.88.72.92.48,1.73,1.2,2.43,2.16.7.96,1.26,2.15,1.68,3.57.42,1.42.63,3.05.63,4.89,0,3.04-.54,6.24-1.62,9.6s-2.7,6.76-4.86,10.2c-2.4,3.76-4.88,6.58-7.44,8.46-2.56,1.88-5.32,2.82-8.28,2.82-1.16,0-2.23-.25-3.21-.75-.98-.5-1.84-1.21-2.58-2.13-.74-.92-1.32-2.04-1.74-3.36-.42-1.32-.63-2.82-.63-4.5ZM179.04,6c-3.32,0-6.64,2.76-9.96,8.28-3.64,6-5.46,11.48-5.46,16.44,0,1.88.29,3.37.87,4.47.58,1.1,1.39,1.65,2.43,1.65,1.92,0,3.6-.65,5.04-1.95s2.92-3.21,4.44-5.73c1.96-3.24,3.47-6.27,4.53-9.09,1.06-2.82,1.59-5.55,1.59-8.19,0-1.96-.33-3.43-.99-4.41-.66-.98-1.49-1.47-2.49-1.47Z"/><path d="M215.7,1.02l-4.8,40.2h-5.82l1.56-13.44h-9l-9.06,13.44h-4.08c-.6,0-.98-.15-1.14-.45-.16-.3-.24-.67-.24-1.11,0-.12.05-.28.15-.48.1-.2.19-.34.27-.42l7.2-10.98c-.52-.16-.88-.33-1.08-.51-.2-.18-.3-.53-.3-1.05,0-.16.04-.33.12-.51.08-.18.16-.31.24-.39l2.22-3.3h2.7l11.7-17.7c.72-1.08,1.48-1.9,2.28-2.46.8-.56,1.88-.84,3.24-.84h3.84ZM201.42,22.02h5.94l1.38-11.16-7.32,11.16Z"/><path d="M228.72,1.2h6.24c1.68,0,3.24.14,4.68.42,1.44.28,2.84.96,4.2,2.04,2.2,1.72,3.3,4.14,3.3,7.26,0,2.44-.34,4.91-1.02,7.41-.68,2.5-1.62,4.9-2.82,7.2-1.2,2.3-2.6,4.45-4.2,6.45-1.6,2-3.31,3.74-5.13,5.22-1.82,1.48-3.71,2.65-5.67,3.51-1.96.86-3.9,1.29-5.82,1.29-.92,0-1.74-.14-2.46-.42-.72-.28-1.32-.65-1.8-1.11s-.85-.96-1.11-1.5c-.26-.54-.39-1.09-.39-1.65s.05-1.03.15-1.41c.1-.38.25-.81.45-1.29l11.52-27.78c-.48-.08-.88-.21-1.2-.39-.32-.18-.48-.49-.48-.93,0-.36.08-.72.24-1.08l1.32-3.24ZM234.78,7.08l-12.06,29.1c2.88-.2,5.39-1.15,7.53-2.85,2.14-1.7,4.21-4.21,6.21-7.53.72-1.16,1.37-2.24,1.95-3.24.58-1,1.08-2,1.5-3,.42-1,.74-2.05.96-3.15.22-1.1.33-2.33.33-3.69,0-.6,0-1.23.03-1.89.02-.66-.25-1.39-.81-2.19-.44-.68-.96-1.11-1.56-1.29s-1.32-.27-2.16-.27h-1.92Z"/><path d="M283.44,1.2v15.3l10.08-15.3h6.42l-26.16,40.02h-6.48l10.44-15.72V3.12c0-.64.13-1.12.39-1.44.26-.32.73-.48,1.41-.48h3.9Z"/><path d="M293.82,31.68c0-3.12.57-6.5,1.71-10.14,1.14-3.64,2.87-7.22,5.19-10.74,4.72-7.2,10-10.8,15.84-10.8,1,0,1.96.24,2.88.72.92.48,1.73,1.2,2.43,2.16.7.96,1.26,2.15,1.68,3.57.42,1.42.63,3.05.63,4.89,0,3.04-.54,6.24-1.62,9.6s-2.7,6.76-4.86,10.2c-2.4,3.76-4.88,6.58-7.44,8.46-2.56,1.88-5.32,2.82-8.28,2.82-1.16,0-2.23-.25-3.21-.75-.98-.5-1.84-1.21-2.58-2.13-.74-.92-1.32-2.04-1.74-3.36-.42-1.32-.63-2.82-.63-4.5ZM315.06,6c-3.32,0-6.64,2.76-9.96,8.28-3.64,6-5.46,11.48-5.46,16.44,0,1.88.29,3.37.87,4.47.58,1.1,1.39,1.65,2.43,1.65,1.92,0,3.6-.65,5.04-1.95s2.92-3.21,4.44-5.73c1.96-3.24,3.47-6.27,4.53-9.09,1.06-2.82,1.59-5.55,1.59-8.19,0-1.96-.33-3.43-.99-4.41-.66-.98-1.49-1.47-2.49-1.47Z"/><path d="M342.29,1.2l-11.1,26.76c-.28.64-.51,1.32-.69,2.04-.18.72-.27,1.44-.27,2.16,0,1.36.31,2.4.93,3.12.62.72,1.39,1.08,2.31,1.08,1.76,0,3.28-.76,4.56-2.28,1.28-1.52,2.5-3.7,3.66-6.54l10.92-26.34h6.06l-12.12,29.22c-1.68,4.04-3.71,7.04-6.09,9-2.38,1.96-4.89,2.94-7.53,2.94s-4.62-.85-6.18-2.55c-1.56-1.7-2.34-4.01-2.34-6.93,0-2.08.44-4.18,1.32-6.3l10.56-25.38h6Z"/><path d="M374.63,1.2c3.24,0,5.68.84,7.32,2.52,1.64,1.68,2.46,3.9,2.46,6.66,0,1.56-.33,3.17-.99,4.83s-1.59,3.23-2.79,4.71-2.65,2.79-4.35,3.93c-1.7,1.14-3.59,1.97-5.67,2.49l4.98,16.26c.04.16.07.27.09.33.02.06.03.17.03.33,0,.36-.03.69-.09.99-.06.3-.37.55-.93.75l-3.84,1.2-6.48-20.16-6.3,15.18h-3.48c-.64,0-1.15-.1-1.53-.3-.38-.2-.57-.54-.57-1.02,0-.2.03-.38.09-.54.06-.16.13-.34.21-.54l13.26-31.98c-1.24-.08-1.86-.52-1.86-1.32,0-.36.08-.72.24-1.08l1.38-3.24h8.82ZM372.23,6.96l-5.7,13.86c.08,0,.23.02.45.06.22.04.37.06.45.06,1.32,0,2.48-.13,3.48-.39,1-.26,2.02-.83,3.06-1.71,1.32-1.12,2.4-2.43,3.24-3.93.84-1.5,1.26-2.81,1.26-3.93,0-1.28-.25-2.27-.75-2.97-.5-.7-1.39-1.05-2.67-1.05h-2.82Z"/><path d="M427.85,13.92c-.32,0-.64-.08-.96-.24-.32-.16-.48-.34-.48-.54,0-.84.07-1.56.21-2.16.14-.6.21-1.3.21-2.1,0-.92-.18-1.67-.54-2.25s-.86-.87-1.5-.87c-.6,0-1.32.19-2.16.57-.84.38-1.73.93-2.67,1.65-.94.72-1.88,1.62-2.82,2.7-.94,1.08-1.83,2.34-2.67,3.78-.92,1.6-1.72,3.26-2.4,4.98-.68,1.72-1.24,3.34-1.68,4.86-.44,1.52-.77,2.84-.99,3.96-.22,1.12-.33,1.88-.33,2.28,0,1.88.19,3.35.57,4.41.38,1.06,1.05,1.59,2.01,1.59,1.88,0,3.65-1.04,5.31-3.12,1.66-2.08,3.33-5.04,5.01-8.88h3.84c.56,0,.95.12,1.17.36.22.24.33.62.33,1.14,0,.08-.1.43-.3,1.05-.2.62-.51,1.39-.93,2.31-.42.92-.98,1.96-1.68,3.12-.7,1.16-1.53,2.32-2.49,3.48-1.76,2.12-3.59,3.72-5.49,4.8-1.9,1.08-3.83,1.62-5.79,1.62-1.04,0-2.01-.23-2.91-.69-.9-.46-1.68-1.09-2.34-1.89-.66-.8-1.18-1.75-1.56-2.85-.38-1.1-.57-2.31-.57-3.63,0-1.48.16-3.14.48-4.98.32-1.84.79-3.75,1.41-5.73.62-1.98,1.39-3.98,2.31-6,.92-2.02,1.96-3.97,3.12-5.85,1.12-1.76,2.31-3.31,3.57-4.65,1.26-1.34,2.53-2.47,3.81-3.39,1.28-.92,2.54-1.61,3.78-2.07,1.24-.46,2.4-.69,3.48-.69.8,0,1.64.17,2.52.51.88.34,1.68.85,2.4,1.53.72.68,1.32,1.52,1.8,2.52.48,1,.72,2.16.72,3.48,0,1-.15,1.99-.45,2.97-.3.98-.63,1.95-.99,2.91h-3.36Z"/><path d="M453.17,1.2c3.24,0,5.68.84,7.32,2.52,1.64,1.68,2.46,3.9,2.46,6.66,0,1.56-.33,3.17-.99,4.83s-1.59,3.23-2.79,4.71-2.65,2.79-4.35,3.93c-1.7,1.14-3.59,1.97-5.67,2.49l4.98,16.26c.04.16.07.27.09.33.02.06.03.17.03.33,0,.36-.03.69-.09.99-.06.3-.37.55-.93.75l-3.84,1.2-6.48-20.16-6.3,15.18h-3.48c-.64,0-1.15-.1-1.53-.3-.38-.2-.57-.54-.57-1.02,0-.2.03-.38.09-.54.06-.16.13-.34.21-.54l13.26-31.98c-1.24-.08-1.86-.52-1.86-1.32,0-.36.08-.72.24-1.08l1.38-3.24h8.82ZM450.77,6.96l-5.7,13.86c.08,0,.23.02.45.06.22.04.37.06.45.06,1.32,0,2.48-.13,3.48-.39,1-.26,2.02-.83,3.06-1.71,1.32-1.12,2.4-2.43,3.24-3.93.84-1.5,1.26-2.81,1.26-3.93,0-1.28-.25-2.27-.75-2.97-.5-.7-1.39-1.05-2.67-1.05h-2.82Z"/><path d="M491.51,1.2l-2.34,5.64h-10.8l-4.8,11.58h11.46l-2.34,5.64h-11.46l-4.8,11.52h12.9l-2.34,5.64h-10.8c-.96,0-1.79-.15-2.49-.45-.7-.3-1.28-.69-1.74-1.17-.46-.48-.8-1.01-1.02-1.59-.22-.58-.33-1.17-.33-1.77,0-.44.03-.8.09-1.08.06-.28.17-.62.33-1.02l11.28-27.3c-.48-.08-.88-.21-1.2-.39-.32-.18-.48-.49-.48-.93,0-.2.03-.38.09-.54.06-.16.13-.34.21-.54l1.32-3.24h19.26Z"/><path d="M514.67,1.02l-4.8,40.2h-5.82l1.56-13.44h-9l-9.06,13.44h-4.08c-.6,0-.98-.15-1.14-.45-.16-.3-.24-.67-.24-1.11,0-.12.05-.28.15-.48.1-.2.19-.34.27-.42l7.2-10.98c-.52-.16-.88-.33-1.08-.51-.2-.18-.3-.53-.3-1.05,0-.16.04-.33.12-.51.08-.18.16-.31.24-.39l2.22-3.3h2.7l11.7-17.7c.72-1.08,1.48-1.9,2.28-2.46.8-.56,1.88-.84,3.24-.84h3.84ZM500.39,22.02h5.94l1.38-11.16-7.32,11.16Z"/><path d="M546.65,1.2l-2.34,5.64h-7.26l-14.22,34.38h-3.54c-1.36,0-2.04-.44-2.04-1.32,0-.2.03-.38.09-.54.06-.16.13-.34.21-.54l13.26-31.98h-6c-1.2,0-1.8-.44-1.8-1.32,0-.36.08-.72.24-1.08l1.32-3.24h22.08Z"/><path d="M560.99,1.2l-16.56,40.02h-3.36c-.6,0-1.08-.1-1.44-.3s-.54-.54-.54-1.02c0-.2.04-.41.12-.63.08-.22.14-.37.18-.45l15.6-37.62h6Z"/><path d="M556.49,31.68c0-3.12.57-6.5,1.71-10.14,1.14-3.64,2.87-7.22,5.19-10.74,4.72-7.2,10-10.8,15.84-10.8,1,0,1.96.24,2.88.72.92.48,1.73,1.2,2.43,2.16.7.96,1.26,2.15,1.68,3.57.42,1.42.63,3.05.63,4.89,0,3.04-.54,6.24-1.62,9.6s-2.7,6.76-4.86,10.2c-2.4,3.76-4.88,6.58-7.44,8.46-2.56,1.88-5.32,2.82-8.28,2.82-1.16,0-2.23-.25-3.21-.75-.98-.5-1.84-1.21-2.58-2.13-.74-.92-1.32-2.04-1.74-3.36-.42-1.32-.63-2.82-.63-4.5ZM577.73,6c-3.32,0-6.64,2.76-9.96,8.28-3.64,6-5.46,11.48-5.46,16.44,0,1.88.29,3.37.87,4.47.58,1.1,1.39,1.65,2.43,1.65,1.92,0,3.6-.65,5.04-1.95s2.92-3.21,4.44-5.73c1.96-3.24,3.47-6.27,4.53-9.09,1.06-2.82,1.59-5.55,1.59-8.19,0-1.96-.33-3.43-.99-4.41-.66-.98-1.49-1.47-2.49-1.47Z"/><path d="M607.61,1.2l-.42,24,9.9-24h6.06l-16.56,40.02h-3.66c-.72,0-1.17-.15-1.35-.45s-.27-.73-.27-1.29l.3-23.82-10.56,25.56h-3.36c-.6,0-1.08-.1-1.44-.3s-.54-.54-.54-1.02c0-.2.04-.41.12-.63.08-.22.14-.37.18-.45l15.6-37.62h6Z"/><rect y="56.94" width="617.14" height="7"/></g></svg>
