<?xml version="1.0" encoding="UTF-8"?><svg id="Layer_2" xmlns="http://www.w3.org/2000/svg" viewBox="0 0 492.28 188.39"><g id="Layer_1-2"><rect width="492.28" height="188.39" fill="#262522"/><path d="M205.22,74.11c3.24,0,5.68.84,7.32,2.52,1.64,1.68,2.46,3.9,2.46,6.66,0,1.56-.33,3.17-.99,4.83-.66,1.66-1.59,3.23-2.79,4.71-1.2,1.48-2.65,2.79-4.35,3.93-1.7,1.14-3.59,1.97-5.67,2.49l4.98,16.26c.04.16.07.27.09.33.02.06.03.17.03.33,0,.36-.03.69-.09.99-.06.3-.37.55-.93.75l-3.84,1.2-6.48-20.16-6.3,15.18h-3.48c-.64,0-1.15-.1-1.53-.3-.38-.2-.57-.54-.57-1.02,0-.2.03-.38.09-.54.06-.16.13-.34.21-.54l13.26-31.98c-1.24-.08-1.86-.52-1.86-1.32,0-.36.08-.72.24-1.08l1.38-3.24h8.82ZM202.82,79.87l-5.7,13.86c.08,0,.23.02.45.06.22.04.37.06.45.06,1.32,0,2.48-.13,3.48-.39,1-.26,2.02-.83,3.06-1.71,1.32-1.12,2.4-2.43,3.24-3.93.84-1.5,1.26-2.81,1.26-3.93,0-1.28-.25-2.27-.75-2.97-.5-.7-1.39-1.05-2.67-1.05h-2.82Z" fill="#fff"/><path d="M243.56,74.11l-2.34,5.64h-10.8l-4.8,11.58h11.46l-2.34,5.64h-11.46l-4.8,11.52h12.9l-2.34,5.64h-10.8c-.96,0-1.79-.15-2.49-.45-.7-.3-1.28-.69-1.74-1.17s-.8-1.01-1.02-1.59c-.22-.58-.33-1.17-.33-1.77,0-.44.03-.8.09-1.08.06-.28.17-.62.33-1.02l11.28-27.3c-.48-.08-.88-.21-1.2-.39-.32-.18-.48-.49-.48-.93,0-.2.03-.38.09-.54.06-.16.13-.34.21-.54l1.32-3.24h19.26Z" fill="#fff"/><path d="M247.52,85.57c0-1.6.32-3.16.96-4.68.64-1.52,1.57-2.87,2.79-4.05,1.22-1.18,2.72-2.13,4.5-2.85,1.78-.72,3.79-1.08,6.03-1.08,1.92,0,3.44.34,4.56,1.02,1.12.68,1.68,1.54,1.68,2.58,0,1.12-.2,2.16-.6,3.12l-1.62,3.9h-3.66c-1.08,0-1.62-.44-1.62-1.32,0-.48.15-.97.45-1.47.3-.5.45-1.03.45-1.59,0-.24-.14-.41-.42-.51-.28-.1-.56-.15-.84-.15-.72,0-1.47.17-2.25.51-.78.34-1.49.81-2.13,1.41-.64.6-1.16,1.3-1.56,2.1-.4.8-.6,1.64-.6,2.52,0,1.32.27,2.65.81,3.99.54,1.34,1.12,2.73,1.74,4.17.62,1.44,1.2,2.94,1.74,4.5s.81,3.22.81,4.98-.43,3.54-1.29,5.1-1.96,2.9-3.3,4.02c-1.34,1.12-2.81,1.99-4.41,2.61-1.6.62-3.14.93-4.62.93-1.56,0-2.88-.19-3.96-.57-1.08-.38-1.95-.86-2.61-1.44-.66-.58-1.14-1.19-1.44-1.83-.3-.64-.45-1.22-.45-1.74,0-.48,0-.89.03-1.23.02-.34.13-.73.33-1.17l1.14-2.82h3.48c1.16,0,1.74.5,1.74,1.5,0,.16-.12.48-.36.96s-.36.82-.36,1.02c0,.48.16.85.48,1.11.32.26.9.39,1.74.39,1.08,0,2.09-.18,3.03-.54.94-.36,1.76-.85,2.46-1.47.7-.62,1.25-1.36,1.65-2.22.4-.86.6-1.77.6-2.73,0-1.48-.27-2.92-.81-4.32-.54-1.4-1.12-2.79-1.74-4.17-.62-1.38-1.2-2.77-1.74-4.17-.54-1.4-.81-2.84-.81-4.32Z" fill="#fff"/><path d="M294.14,74.11l-2.34,5.64h-10.8l-4.8,11.58h11.46l-2.34,5.64h-11.46l-4.8,11.52h12.9l-2.34,5.64h-10.8c-.96,0-1.79-.15-2.49-.45-.7-.3-1.28-.69-1.74-1.17s-.8-1.01-1.02-1.59c-.22-.58-.33-1.17-.33-1.77,0-.44.03-.8.09-1.08.06-.28.17-.62.33-1.02l11.28-27.3c-.48-.08-.88-.21-1.2-.39-.32-.18-.48-.49-.48-.93,0-.2.03-.38.09-.54.06-.16.13-.34.21-.54l1.32-3.24h19.26Z" fill="#fff"/><path d="M320.6,74.11l-2.34,5.64h-7.26l-14.22,34.38h-3.54c-1.36,0-2.04-.44-2.04-1.32,0-.2.03-.38.09-.54.06-.16.13-.34.21-.54l13.26-31.98h-6c-1.2,0-1.8-.44-1.8-1.32,0-.36.08-.72.24-1.08l1.32-3.24h22.08Z" fill="#fff"/></g></svg>
