<?xml version="1.0" encoding="UTF-8"?><svg id="Layer_2" xmlns="http://www.w3.org/2000/svg" viewBox="0 0 1409.38 204.43"><g id="Layer_1-2"><path d="M32.82,159.43l-2.34,5.64h-10.92l-4.8,11.64h11.52l-2.34,5.64h-11.52l-7.08,17.1H1.92c-.56,0-1.02-.1-1.38-.3-.36-.2-.54-.54-.54-1.02,0-.2.04-.41.12-.63.08-.22.14-.37.18-.45l13.26-31.98c-.56-.04-1-.16-1.32-.36-.32-.2-.48-.52-.48-.96,0-.2.03-.38.09-.54.06-.16.13-.34.21-.54l1.32-3.24h19.44Z"/><path d="M48.66,159.43l-16.56,40.02h-3.36c-.6,0-1.08-.1-1.44-.3-.36-.2-.54-.54-.54-1.02,0-.2.04-.41.12-.63.08-.22.14-.37.18-.45l15.6-37.62h6Z"/><path d="M65.58,159.43l-14.22,34.38h13.14l-2.34,5.64h-11.1c-1.68,0-3.03-.43-4.05-1.29-1.02-.86-1.53-2.13-1.53-3.81,0-.6.14-1.22.42-1.86l13.68-33.06h6Z"/><path d="M89.52,159.43l-14.22,34.38h13.14l-2.34,5.64h-11.1c-1.68,0-3.03-.43-4.05-1.29-1.02-.86-1.53-2.13-1.53-3.81,0-.6.14-1.22.42-1.86l13.68-33.06h6Z"/><path d="M128.88,159.43v15.3l10.08-15.3h6.42l-26.16,40.02h-6.48l10.44-15.72v-22.38c0-.64.13-1.12.39-1.44.26-.32.73-.48,1.41-.48h3.9Z"/><path d="M139.26,189.91c0-3.12.57-6.5,1.71-10.14,1.14-3.64,2.87-7.22,5.19-10.74,4.72-7.2,10-10.8,15.84-10.8,1,0,1.96.24,2.88.72.92.48,1.73,1.2,2.43,2.16.7.96,1.26,2.15,1.68,3.57.42,1.42.63,3.05.63,4.89,0,3.04-.54,6.24-1.62,9.6-1.08,3.36-2.7,6.76-4.86,10.2-2.4,3.76-4.88,6.58-7.44,8.46-2.56,1.88-5.32,2.82-8.28,2.82-1.16,0-2.23-.25-3.21-.75-.98-.5-1.84-1.21-2.58-2.13-.74-.92-1.32-2.04-1.74-3.36-.42-1.32-.63-2.82-.63-4.5ZM160.5,164.23c-3.32,0-6.64,2.76-9.96,8.28-3.64,6-5.46,11.48-5.46,16.44,0,1.88.29,3.37.87,4.47.58,1.1,1.39,1.65,2.43,1.65,1.92,0,3.6-.65,5.04-1.95,1.44-1.3,2.92-3.21,4.44-5.73,1.96-3.24,3.47-6.27,4.53-9.09,1.06-2.82,1.59-5.55,1.59-8.19,0-1.96-.33-3.43-.99-4.41-.66-.98-1.49-1.47-2.49-1.47Z"/><path d="M187.74,159.43l-11.1,26.76c-.28.64-.51,1.32-.69,2.04-.18.72-.27,1.44-.27,2.16,0,1.36.31,2.4.93,3.12.62.72,1.39,1.08,2.31,1.08,1.76,0,3.28-.76,4.56-2.28,1.28-1.52,2.5-3.7,3.66-6.54l10.92-26.34h6.06l-12.12,29.22c-1.68,4.04-3.71,7.04-6.09,9-2.38,1.96-4.89,2.94-7.53,2.94s-4.62-.85-6.18-2.55-2.34-4.01-2.34-6.93c0-2.08.44-4.18,1.32-6.3l10.56-25.38h6Z"/><path d="M220.08,159.43c3.24,0,5.68.84,7.32,2.52,1.64,1.68,2.46,3.9,2.46,6.66,0,1.56-.33,3.17-.99,4.83-.66,1.66-1.59,3.23-2.79,4.71-1.2,1.48-2.65,2.79-4.35,3.93-1.7,1.14-3.59,1.97-5.67,2.49l4.98,16.26c.04.16.07.27.09.33.02.06.03.17.03.33,0,.36-.03.69-.09.99-.06.3-.37.55-.93.75l-3.84,1.2-6.48-20.16-6.3,15.18h-3.48c-.64,0-1.15-.1-1.53-.3-.38-.2-.57-.54-.57-1.02,0-.2.03-.38.09-.54.06-.16.13-.34.21-.54l13.26-31.98c-1.24-.08-1.86-.52-1.86-1.32,0-.36.08-.72.24-1.08l1.38-3.24h8.82ZM217.68,165.19l-5.7,13.86c.08,0,.23.02.45.06.22.04.37.06.45.06,1.32,0,2.48-.13,3.48-.39,1-.26,2.02-.83,3.06-1.71,1.32-1.12,2.4-2.43,3.24-3.93.84-1.5,1.26-2.81,1.26-3.93,0-1.28-.25-2.27-.75-2.97-.5-.7-1.39-1.05-2.67-1.05h-2.82Z"/><path d="M257.58,170.89c0-1.6.32-3.16.96-4.68.64-1.52,1.57-2.87,2.79-4.05,1.22-1.18,2.72-2.13,4.5-2.85,1.78-.72,3.79-1.08,6.03-1.08,1.92,0,3.44.34,4.56,1.02,1.12.68,1.68,1.54,1.68,2.58,0,1.12-.2,2.16-.6,3.12l-1.62,3.9h-3.66c-1.08,0-1.62-.44-1.62-1.32,0-.48.15-.97.45-1.47.3-.5.45-1.03.45-1.59,0-.24-.14-.41-.42-.51-.28-.1-.56-.15-.84-.15-.72,0-1.47.17-2.25.51-.78.34-1.49.81-2.13,1.41-.64.6-1.16,1.3-1.56,2.1-.4.8-.6,1.64-.6,2.52,0,1.32.27,2.65.81,3.99.54,1.34,1.12,2.73,1.74,4.17.62,1.44,1.2,2.94,1.74,4.5s.81,3.22.81,4.98-.43,3.54-1.29,5.1c-.86,1.56-1.96,2.9-3.3,4.02-1.34,1.12-2.81,1.99-4.41,2.61-1.6.62-3.14.93-4.62.93-1.56,0-2.88-.19-3.96-.57-1.08-.38-1.95-.86-2.61-1.44-.66-.58-1.14-1.19-1.44-1.83-.3-.64-.45-1.22-.45-1.74,0-.48,0-.89.03-1.23.02-.34.13-.73.33-1.17l1.14-2.82h3.48c1.16,0,1.74.5,1.74,1.5,0,.16-.12.48-.36.96-.24.48-.36.82-.36,1.02,0,.48.16.85.48,1.11.32.26.9.39,1.74.39,1.08,0,2.09-.18,3.03-.54.94-.36,1.76-.85,2.46-1.47.7-.62,1.25-1.36,1.65-2.22.4-.86.6-1.77.6-2.73,0-1.48-.27-2.92-.81-4.32-.54-1.4-1.12-2.79-1.74-4.17-.62-1.38-1.2-2.77-1.74-4.17-.54-1.4-.81-2.84-.81-4.32Z"/><path d="M294.17,159.43l-.42,24,9.9-24h6.06l-16.56,40.02h-3.66c-.72,0-1.17-.15-1.35-.45-.18-.3-.27-.73-.27-1.29l.3-23.82-10.56,25.56h-3.36c-.6,0-1.08-.1-1.44-.3-.36-.2-.54-.54-.54-1.02,0-.2.04-.41.12-.63.08-.22.14-.37.18-.45l15.6-37.62h6Z"/><path d="M336.59,159.43l-2.34,5.64h-10.8l-4.8,11.58h11.46l-2.34,5.64h-11.46l-4.8,11.52h12.9l-2.34,5.64h-10.8c-.96,0-1.79-.15-2.49-.45-.7-.3-1.28-.69-1.74-1.17-.46-.48-.8-1.01-1.02-1.59-.22-.58-.33-1.17-.33-1.77,0-.44.03-.8.09-1.08.06-.28.17-.62.33-1.02l11.28-27.3c-.48-.08-.88-.21-1.2-.39-.32-.18-.48-.49-.48-.93,0-.2.03-.38.09-.54.06-.16.13-.34.21-.54l1.32-3.24h19.26Z"/><path d="M359.75,159.25l-4.8,40.2h-5.82l1.56-13.44h-9l-9.06,13.44h-4.08c-.6,0-.98-.15-1.14-.45-.16-.3-.24-.67-.24-1.11,0-.12.05-.28.15-.48.1-.2.19-.34.27-.42l7.2-10.98c-.52-.16-.88-.33-1.08-.51-.2-.18-.3-.53-.3-1.05,0-.16.04-.33.12-.51.08-.18.16-.31.24-.39l2.22-3.3h2.7l11.7-17.7c.72-1.08,1.48-1.9,2.28-2.46.8-.56,1.88-.84,3.24-.84h3.84ZM345.47,180.25h5.94l1.38-11.16-7.32,11.16Z"/><path d="M381.65,159.43l-5.58,13.5,15-13.5h8.16l-20.16,18.78,7.8,22.14c.08.2.14.36.18.48.04.12.06.28.06.48,0,.48-.07.79-.21.93-.14.14-.43.29-.87.45l-3.84,1.38-7.74-21.66-3.66,3.24-5.7,13.8h-3.36c-.6,0-1.08-.1-1.44-.3-.36-.2-.54-.54-.54-1.02,0-.2.04-.41.12-.63.08-.22.14-.37.18-.45l15.6-37.62h6Z"/><path d="M422.15,159.43l-2.34,5.64h-10.8l-4.8,11.58h11.46l-2.34,5.64h-11.46l-4.8,11.52h12.9l-2.34,5.64h-10.8c-.96,0-1.79-.15-2.49-.45-.7-.3-1.28-.69-1.74-1.17-.46-.48-.8-1.01-1.02-1.59-.22-.58-.33-1.17-.33-1.77,0-.44.03-.8.09-1.08.06-.28.17-.62.33-1.02l11.28-27.3c-.48-.08-.88-.21-1.2-.39-.32-.18-.48-.49-.48-.93,0-.2.03-.38.09-.54.06-.16.13-.34.21-.54l1.32-3.24h19.26Z"/><path d="M438.77,159.43c3.24,0,5.68.84,7.32,2.52,1.64,1.68,2.46,3.9,2.46,6.66,0,1.56-.33,3.17-.99,4.83-.66,1.66-1.59,3.23-2.79,4.71-1.2,1.48-2.65,2.79-4.35,3.93-1.7,1.14-3.59,1.97-5.67,2.49l4.98,16.26c.04.16.07.27.09.33.02.06.03.17.03.33,0,.36-.03.69-.09.99-.06.3-.37.55-.93.75l-3.84,1.2-6.48-20.16-6.3,15.18h-3.48c-.64,0-1.15-.1-1.53-.3-.38-.2-.57-.54-.57-1.02,0-.2.03-.38.09-.54.06-.16.13-.34.21-.54l13.26-31.98c-1.24-.08-1.86-.52-1.86-1.32,0-.36.08-.72.24-1.08l1.38-3.24h8.82ZM436.37,165.19l-5.7,13.86c.08,0,.23.02.45.06.22.04.37.06.45.06,1.32,0,2.48-.13,3.48-.39,1-.26,2.02-.83,3.06-1.71,1.32-1.12,2.4-2.43,3.24-3.93.84-1.5,1.26-2.81,1.26-3.93,0-1.28-.25-2.27-.75-2.97-.5-.7-1.39-1.05-2.67-1.05h-2.82Z"/><path d="M454.67,170.89c0-1.6.32-3.16.96-4.68.64-1.52,1.57-2.87,2.79-4.05,1.22-1.18,2.72-2.13,4.5-2.85,1.78-.72,3.79-1.08,6.03-1.08,1.92,0,3.44.34,4.56,1.02,1.12.68,1.68,1.54,1.68,2.58,0,1.12-.2,2.16-.6,3.12l-1.62,3.9h-3.66c-1.08,0-1.62-.44-1.62-1.32,0-.48.15-.97.45-1.47.3-.5.45-1.03.45-1.59,0-.24-.14-.41-.42-.51-.28-.1-.56-.15-.84-.15-.72,0-1.47.17-2.25.51-.78.34-1.49.81-2.13,1.41-.64.6-1.16,1.3-1.56,2.1-.4.8-.6,1.64-.6,2.52,0,1.32.27,2.65.81,3.99.54,1.34,1.12,2.73,1.74,4.17.62,1.44,1.2,2.94,1.74,4.5s.81,3.22.81,4.98-.43,3.54-1.29,5.1c-.86,1.56-1.96,2.9-3.3,4.02-1.34,1.12-2.81,1.99-4.41,2.61-1.6.62-3.14.93-4.62.93-1.56,0-2.88-.19-3.96-.57-1.08-.38-1.95-.86-2.61-1.44-.66-.58-1.14-1.19-1.44-1.83-.3-.64-.45-1.22-.45-1.74,0-.48,0-.89.03-1.23.02-.34.13-.73.33-1.17l1.14-2.82h3.48c1.16,0,1.74.5,1.74,1.5,0,.16-.12.48-.36.96-.24.48-.36.82-.36,1.02,0,.48.16.85.48,1.11.32.26.9.39,1.74.39,1.08,0,2.09-.18,3.03-.54.94-.36,1.76-.85,2.46-1.47.7-.62,1.25-1.36,1.65-2.22.4-.86.6-1.77.6-2.73,0-1.48-.27-2.92-.81-4.32-.54-1.4-1.12-2.79-1.74-4.17-.62-1.38-1.2-2.77-1.74-4.17-.54-1.4-.81-2.84-.81-4.32Z"/><path d="M508.37,159.49l-6.9,24.9,15.54-23.7c.16-.24.29-.44.39-.6.1-.16.22-.29.36-.39.14-.1.32-.16.54-.18.22-.02.55-.03.99-.03h4.98l-4.26,24.9,12.96-24.9h6.24l-20.34,39.96h-5.82c-.52,0-.95-.11-1.29-.33-.34-.22-.51-.55-.51-.99,0-.16,0-.29.03-.39.02-.1.05-.23.09-.39l5.52-27.12-18.06,29.22h-5.46c-1.2,0-1.8-.46-1.8-1.38,0-.08.02-.24.06-.48.04-.24.08-.4.12-.48l10.8-37.62h5.82Z"/><path d="M554.75,159.43l-16.56,40.02h-3.36c-.6,0-1.08-.1-1.44-.3-.36-.2-.54-.54-.54-1.02,0-.2.04-.41.12-.63.08-.22.14-.37.18-.45l15.6-37.62h6Z"/><path d="M581.75,159.43l-2.34,5.64h-7.26l-14.22,34.38h-3.54c-1.36,0-2.04-.44-2.04-1.32,0-.2.03-.38.09-.54.06-.16.13-.34.21-.54l13.26-31.98h-6c-1.2,0-1.8-.44-1.8-1.32,0-.36.08-.72.24-1.08l1.32-3.24h22.08Z"/><path d="M597.11,159.43l-7.14,17.22h9.3l7.14-17.22h6l-16.56,40.02h-3.36c-.6,0-1.08-.1-1.44-.3-.36-.2-.54-.54-.54-1.02,0-.2.04-.41.12-.63.08-.22.14-.37.18-.45l6.12-14.76h-9.3l-7.08,17.16h-3.36c-.6,0-1.08-.1-1.44-.3-.36-.2-.54-.54-.54-1.02,0-.2.04-.41.12-.63.08-.22.14-.37.18-.45l6.12-14.7c-1.12.08-1.68-.38-1.68-1.38,0-.32.04-.58.12-.78l1.5-3.54h2.4l7.14-17.22h6Z"/><path d="M657.71,159.25l-4.8,40.2h-5.82l1.56-13.44h-9l-9.06,13.44h-4.08c-.6,0-.98-.15-1.14-.45-.16-.3-.24-.67-.24-1.11,0-.12.05-.28.15-.48.1-.2.19-.34.27-.42l7.2-10.98c-.52-.16-.88-.33-1.08-.51-.2-.18-.3-.53-.3-1.05,0-.16.04-.33.12-.51.08-.18.16-.31.24-.39l2.22-3.3h2.7l11.7-17.7c.72-1.08,1.48-1.9,2.28-2.46.8-.56,1.88-.84,3.24-.84h3.84ZM643.43,180.25h5.94l1.38-11.16-7.32,11.16Z"/><path d="M679.61,159.43l-.42,24,9.9-24h6.06l-16.56,40.02h-3.66c-.72,0-1.17-.15-1.35-.45-.18-.3-.27-.73-.27-1.29l.3-23.82-10.56,25.56h-3.36c-.6,0-1.08-.1-1.44-.3-.36-.2-.54-.54-.54-1.02,0-.2.04-.41.12-.63.08-.22.14-.37.18-.45l15.6-37.62h6Z"/><path d="M705.83,159.43v15.3l10.08-15.3h6.42l-26.16,40.02h-6.48l10.44-15.72v-22.38c0-.64.13-1.12.39-1.44.26-.32.73-.48,1.41-.48h3.9Z"/><path d="M762.53,172.15c-.32,0-.64-.08-.96-.24-.32-.16-.48-.34-.48-.54,0-.84.07-1.56.21-2.16.14-.6.21-1.3.21-2.1,0-.92-.18-1.67-.54-2.25-.36-.58-.86-.87-1.5-.87-.6,0-1.32.19-2.16.57-.84.38-1.73.93-2.67,1.65-.94.72-1.88,1.62-2.82,2.7-.94,1.08-1.83,2.34-2.67,3.78-.92,1.6-1.72,3.26-2.4,4.98-.68,1.72-1.24,3.34-1.68,4.86-.44,1.52-.77,2.84-.99,3.96-.22,1.12-.33,1.88-.33,2.28,0,1.88.19,3.35.57,4.41.38,1.06,1.05,1.59,2.01,1.59,1.88,0,3.65-1.04,5.31-3.12,1.66-2.08,3.33-5.04,5.01-8.88h3.84c.56,0,.95.12,1.17.36.22.24.33.62.33,1.14,0,.08-.1.43-.3,1.05-.2.62-.51,1.39-.93,2.31-.42.92-.98,1.96-1.68,3.12-.7,1.16-1.53,2.32-2.49,3.48-1.76,2.12-3.59,3.72-5.49,4.8-1.9,1.08-3.83,1.62-5.79,1.62-1.04,0-2.01-.23-2.91-.69-.9-.46-1.68-1.09-2.34-1.89-.66-.8-1.18-1.75-1.56-2.85-.38-1.1-.57-2.31-.57-3.63,0-1.48.16-3.14.48-4.98.32-1.84.79-3.75,1.41-5.73.62-1.98,1.39-3.98,2.31-6,.92-2.02,1.96-3.97,3.12-5.85,1.12-1.76,2.31-3.31,3.57-4.65,1.26-1.34,2.53-2.47,3.81-3.39,1.28-.92,2.54-1.61,3.78-2.07,1.24-.46,2.4-.69,3.48-.69.8,0,1.64.17,2.52.51.88.34,1.68.85,2.4,1.53.72.68,1.32,1.52,1.8,2.52.48,1,.72,2.16.72,3.48,0,1-.15,1.99-.45,2.97-.3.98-.63,1.95-.99,2.91h-3.36Z"/><path d="M766.19,189.91c0-3.12.57-6.5,1.71-10.14,1.14-3.64,2.87-7.22,5.19-10.74,4.72-7.2,10-10.8,15.84-10.8,1,0,1.96.24,2.88.72.92.48,1.73,1.2,2.43,2.16.7.96,1.26,2.15,1.68,3.57.42,1.42.63,3.05.63,4.89,0,3.04-.54,6.24-1.62,9.6-1.08,3.36-2.7,6.76-4.86,10.2-2.4,3.76-4.88,6.58-7.44,8.46-2.56,1.88-5.32,2.82-8.28,2.82-1.16,0-2.23-.25-3.21-.75-.98-.5-1.84-1.21-2.58-2.13-.74-.92-1.32-2.04-1.74-3.36-.42-1.32-.63-2.82-.63-4.5ZM787.43,164.23c-3.32,0-6.64,2.76-9.96,8.28-3.64,6-5.46,11.48-5.46,16.44,0,1.88.29,3.37.87,4.47.58,1.1,1.39,1.65,2.43,1.65,1.92,0,3.6-.65,5.04-1.95,1.44-1.3,2.92-3.21,4.44-5.73,1.96-3.24,3.47-6.27,4.53-9.09,1.06-2.82,1.59-5.55,1.59-8.19,0-1.96-.33-3.43-.99-4.41-.66-.98-1.49-1.47-2.49-1.47Z"/><path d="M817.31,159.43l-14.22,34.38h13.14l-2.34,5.64h-11.1c-1.68,0-3.03-.43-4.05-1.29-1.02-.86-1.53-2.13-1.53-3.81,0-.6.14-1.22.42-1.86l13.68-33.06h6Z"/><path d="M819.83,189.91c0-3.12.57-6.5,1.71-10.14,1.14-3.64,2.87-7.22,5.19-10.74,4.72-7.2,10-10.8,15.84-10.8,1,0,1.96.24,2.88.72.92.48,1.73,1.2,2.43,2.16.7.96,1.26,2.15,1.68,3.57.42,1.42.63,3.05.63,4.89,0,3.04-.54,6.24-1.62,9.6-1.08,3.36-2.7,6.76-4.86,10.2-2.4,3.76-4.88,6.58-7.44,8.46-2.56,1.88-5.32,2.82-8.28,2.82-1.16,0-2.23-.25-3.21-.75-.98-.5-1.84-1.21-2.58-2.13-.74-.92-1.32-2.04-1.74-3.36-.42-1.32-.63-2.82-.63-4.5ZM841.07,164.23c-3.32,0-6.64,2.76-9.96,8.28-3.64,6-5.46,11.48-5.46,16.44,0,1.88.29,3.37.87,4.47.58,1.1,1.39,1.65,2.43,1.65,1.92,0,3.6-.65,5.04-1.95,1.44-1.3,2.92-3.21,4.44-5.73,1.96-3.24,3.47-6.27,4.53-9.09,1.06-2.82,1.59-5.55,1.59-8.19,0-1.96-.33-3.43-.99-4.41-.66-.98-1.49-1.47-2.49-1.47Z"/><path d="M868.3,159.43l-11.1,26.76c-.28.64-.51,1.32-.69,2.04-.18.72-.27,1.44-.27,2.16,0,1.36.31,2.4.93,3.12.62.72,1.39,1.08,2.31,1.08,1.76,0,3.28-.76,4.56-2.28,1.28-1.52,2.5-3.7,3.66-6.54l10.92-26.34h6.06l-12.12,29.22c-1.68,4.04-3.71,7.04-6.09,9-2.38,1.96-4.89,2.94-7.53,2.94s-4.62-.85-6.18-2.55-2.34-4.01-2.34-6.93c0-2.08.44-4.18,1.32-6.3l10.56-25.38h6Z"/><path d="M900.64,159.43c3.24,0,5.68.84,7.32,2.52,1.64,1.68,2.46,3.9,2.46,6.66,0,1.56-.33,3.17-.99,4.83-.66,1.66-1.59,3.23-2.79,4.71-1.2,1.48-2.65,2.79-4.35,3.93-1.7,1.14-3.59,1.97-5.67,2.49l4.98,16.26c.04.16.07.27.09.33.02.06.03.17.03.33,0,.36-.03.69-.09.99-.06.3-.37.55-.93.75l-3.84,1.2-6.48-20.16-6.3,15.18h-3.48c-.64,0-1.15-.1-1.53-.3-.38-.2-.57-.54-.57-1.02,0-.2.03-.38.09-.54.06-.16.13-.34.21-.54l13.26-31.98c-1.24-.08-1.86-.52-1.86-1.32,0-.36.08-.72.24-1.08l1.38-3.24h8.82ZM898.24,165.19l-5.7,13.86c.08,0,.23.02.45.06.22.04.37.06.45.06,1.32,0,2.48-.13,3.48-.39,1-.26,2.02-.83,3.06-1.71,1.32-1.12,2.4-2.43,3.24-3.93.84-1.5,1.26-2.81,1.26-3.93,0-1.28-.25-2.27-.75-2.97-.5-.7-1.39-1.05-2.67-1.05h-2.82Z"/><path d="M944.38,159.43v15.3l10.08-15.3h6.42l-26.16,40.02h-6.48l10.44-15.72v-22.38c0-.64.13-1.12.39-1.44.26-.32.73-.48,1.41-.48h3.9Z"/><path d="M954.76,189.91c0-3.12.57-6.5,1.71-10.14,1.14-3.64,2.87-7.22,5.19-10.74,4.72-7.2,10-10.8,15.84-10.8,1,0,1.96.24,2.88.72.92.48,1.73,1.2,2.43,2.16.7.96,1.26,2.15,1.68,3.57.42,1.42.63,3.05.63,4.89,0,3.04-.54,6.24-1.62,9.6-1.08,3.36-2.7,6.76-4.86,10.2-2.4,3.76-4.88,6.58-7.44,8.46-2.56,1.88-5.32,2.82-8.28,2.82-1.16,0-2.23-.25-3.21-.75-.98-.5-1.84-1.21-2.58-2.13-.74-.92-1.32-2.04-1.74-3.36-.42-1.32-.63-2.82-.63-4.5ZM976,164.23c-3.32,0-6.64,2.76-9.96,8.28-3.64,6-5.46,11.48-5.46,16.44,0,1.88.29,3.37.87,4.47.58,1.1,1.39,1.65,2.43,1.65,1.92,0,3.6-.65,5.04-1.95,1.44-1.3,2.92-3.21,4.44-5.73,1.96-3.24,3.47-6.27,4.53-9.09,1.06-2.82,1.59-5.55,1.59-8.19,0-1.96-.33-3.43-.99-4.41-.66-.98-1.49-1.47-2.49-1.47Z"/><path d="M1003.24,159.43l-11.1,26.76c-.28.64-.51,1.32-.69,2.04-.18.72-.27,1.44-.27,2.16,0,1.36.31,2.4.93,3.12.62.72,1.39,1.08,2.31,1.08,1.76,0,3.28-.76,4.56-2.28,1.28-1.52,2.5-3.7,3.66-6.54l10.92-26.34h6.06l-12.12,29.22c-1.68,4.04-3.71,7.04-6.09,9-2.38,1.96-4.89,2.94-7.53,2.94s-4.62-.85-6.18-2.55-2.34-4.01-2.34-6.93c0-2.08.44-4.18,1.32-6.3l10.56-25.38h6Z"/><path d="M1035.58,159.43c3.24,0,5.68.84,7.32,2.52,1.64,1.68,2.46,3.9,2.46,6.66,0,1.56-.33,3.17-.99,4.83-.66,1.66-1.59,3.23-2.79,4.71-1.2,1.48-2.65,2.79-4.35,3.93-1.7,1.14-3.59,1.97-5.67,2.49l4.98,16.26c.04.16.07.27.09.33.02.06.03.17.03.33,0,.36-.03.69-.09.99-.06.3-.37.55-.93.75l-3.84,1.2-6.48-20.16-6.3,15.18h-3.48c-.64,0-1.15-.1-1.53-.3-.38-.2-.57-.54-.57-1.02,0-.2.03-.38.09-.54.06-.16.13-.34.21-.54l13.26-31.98c-1.24-.08-1.86-.52-1.86-1.32,0-.36.08-.72.24-1.08l1.38-3.24h8.82ZM1033.18,165.19l-5.7,13.86c.08,0,.23.02.45.06.22.04.37.06.45.06,1.32,0,2.48-.13,3.48-.39,1-.26,2.02-.83,3.06-1.71,1.32-1.12,2.4-2.43,3.24-3.93.84-1.5,1.26-2.81,1.26-3.93,0-1.28-.25-2.27-.75-2.97-.5-.7-1.39-1.05-2.67-1.05h-2.82Z"/><path d="M1086.52,159.43l-7.14,17.22h9.3l7.14-17.22h6l-16.56,40.02h-3.36c-.6,0-1.08-.1-1.44-.3-.36-.2-.54-.54-.54-1.02,0-.2.04-.41.12-.63.08-.22.14-.37.18-.45l6.12-14.76h-9.3l-7.08,17.16h-3.36c-.6,0-1.08-.1-1.44-.3-.36-.2-.54-.54-.54-1.02,0-.2.04-.41.12-.63.08-.22.14-.37.18-.45l6.12-14.7c-1.12.08-1.68-.38-1.68-1.38,0-.32.04-.58.12-.78l1.5-3.54h2.4l7.14-17.22h6Z"/><path d="M1128.76,159.43l-2.34,5.64h-10.8l-4.8,11.58h11.46l-2.34,5.64h-11.46l-4.8,11.52h12.9l-2.34,5.64h-10.8c-.96,0-1.79-.15-2.49-.45-.7-.3-1.28-.69-1.74-1.17-.46-.48-.8-1.01-1.02-1.59-.22-.58-.33-1.17-.33-1.77,0-.44.03-.8.09-1.08.06-.28.17-.62.33-1.02l11.28-27.3c-.48-.08-.88-.21-1.2-.39-.32-.18-.48-.49-.48-.93,0-.2.03-.38.09-.54.06-.16.13-.34.21-.54l1.32-3.24h19.26Z"/><path d="M1151.92,159.25l-4.8,40.2h-5.82l1.56-13.44h-9l-9.06,13.44h-4.08c-.6,0-.98-.15-1.14-.45-.16-.3-.24-.67-.24-1.11,0-.12.05-.28.15-.48.1-.2.19-.34.27-.42l7.2-10.98c-.52-.16-.88-.33-1.08-.51-.2-.18-.3-.53-.3-1.05,0-.16.04-.33.12-.51.08-.18.16-.31.24-.39l2.22-3.3h2.7l11.7-17.7c.72-1.08,1.48-1.9,2.28-2.46.8-.56,1.88-.84,3.24-.84h3.84ZM1137.64,180.25h5.94l1.38-11.16-7.32,11.16Z"/><path d="M1174.06,159.43c3.24,0,5.68.84,7.32,2.52s2.46,3.9,2.46,6.66c0,1.56-.33,3.17-.99,4.83-.66,1.66-1.59,3.23-2.79,4.71-1.2,1.48-2.65,2.79-4.35,3.93-1.7,1.14-3.59,1.97-5.67,2.49l4.98,16.26c.04.16.07.27.09.33.02.06.03.17.03.33,0,.36-.03.69-.09.99-.06.3-.37.55-.93.75l-3.84,1.2-6.48-20.16-6.3,15.18h-3.48c-.64,0-1.15-.1-1.53-.3-.38-.2-.57-.54-.57-1.02,0-.2.03-.38.09-.54.06-.16.13-.34.21-.54l13.26-31.98c-1.24-.08-1.86-.52-1.86-1.32,0-.36.08-.72.24-1.08l1.38-3.24h8.82ZM1171.66,165.19l-5.7,13.86c.08,0,.23.02.45.06.22.04.37.06.45.06,1.32,0,2.48-.13,3.48-.39,1-.26,2.02-.83,3.06-1.71,1.32-1.12,2.4-2.43,3.24-3.93s1.26-2.81,1.26-3.93c0-1.28-.25-2.27-.75-2.97-.5-.7-1.39-1.05-2.67-1.05h-2.82Z"/><path d="M1212.46,159.43l-2.34,5.64h-7.26l-14.22,34.38h-3.54c-1.36,0-2.04-.44-2.04-1.32,0-.2.03-.38.09-.54.06-.16.13-.34.21-.54l13.26-31.98h-6c-1.2,0-1.8-.44-1.8-1.32,0-.36.08-.72.24-1.08l1.32-3.24h22.08Z"/><path d="M1239.52,159.43h6.24c1.68,0,3.24.14,4.68.42,1.44.28,2.84.96,4.2,2.04,2.2,1.72,3.3,4.14,3.3,7.26,0,2.44-.34,4.91-1.02,7.41-.68,2.5-1.62,4.9-2.82,7.2-1.2,2.3-2.6,4.45-4.2,6.45-1.6,2-3.31,3.74-5.13,5.22-1.82,1.48-3.71,2.65-5.67,3.51-1.96.86-3.9,1.29-5.82,1.29-.92,0-1.74-.14-2.46-.42-.72-.28-1.32-.65-1.8-1.11-.48-.46-.85-.96-1.11-1.5s-.39-1.09-.39-1.65.05-1.03.15-1.41c.1-.38.25-.81.45-1.29l11.52-27.78c-.48-.08-.88-.21-1.2-.39s-.48-.49-.48-.93c0-.36.08-.72.24-1.08l1.32-3.24ZM1245.58,165.31l-12.06,29.1c2.88-.2,5.39-1.15,7.53-2.85,2.14-1.7,4.21-4.21,6.21-7.53.72-1.16,1.37-2.24,1.95-3.24.58-1,1.08-2,1.5-3,.42-1,.74-2.05.96-3.15.22-1.1.33-2.33.33-3.69,0-.6,0-1.23.03-1.89.02-.66-.25-1.39-.81-2.19-.44-.68-.96-1.11-1.56-1.29-.6-.18-1.32-.27-2.16-.27h-1.92Z"/><path d="M1288.84,159.43l-2.34,5.64h-10.8l-4.8,11.58h11.46l-2.34,5.64h-11.46l-4.8,11.52h12.9l-2.34,5.64h-10.8c-.96,0-1.79-.15-2.49-.45-.7-.3-1.28-.69-1.74-1.17s-.8-1.01-1.02-1.59c-.22-.58-.33-1.17-.33-1.77,0-.44.03-.8.09-1.08.06-.28.17-.62.33-1.02l11.28-27.3c-.48-.08-.88-.21-1.2-.39-.32-.18-.48-.49-.48-.93,0-.2.03-.38.09-.54.06-.16.13-.34.21-.54l1.32-3.24h19.26Z"/><path d="M1292.8,170.89c0-1.6.32-3.16.96-4.68.64-1.52,1.57-2.87,2.79-4.05,1.22-1.18,2.72-2.13,4.5-2.85,1.78-.72,3.79-1.08,6.03-1.08,1.92,0,3.44.34,4.56,1.02,1.12.68,1.68,1.54,1.68,2.58,0,1.12-.2,2.16-.6,3.12l-1.62,3.9h-3.66c-1.08,0-1.62-.44-1.62-1.32,0-.48.15-.97.45-1.47.3-.5.45-1.03.45-1.59,0-.24-.14-.41-.42-.51-.28-.1-.56-.15-.84-.15-.72,0-1.47.17-2.25.51-.78.34-1.49.81-2.13,1.41-.64.6-1.16,1.3-1.56,2.1-.4.8-.6,1.64-.6,2.52,0,1.32.27,2.65.81,3.99.54,1.34,1.12,2.73,1.74,4.17s1.2,2.94,1.74,4.5.81,3.22.81,4.98-.43,3.54-1.29,5.1-1.96,2.9-3.3,4.02c-1.34,1.12-2.81,1.99-4.41,2.61s-3.14.93-4.62.93c-1.56,0-2.88-.19-3.96-.57-1.08-.38-1.95-.86-2.61-1.44-.66-.58-1.14-1.19-1.44-1.83-.3-.64-.45-1.22-.45-1.74,0-.48,0-.89.03-1.23.02-.34.13-.73.33-1.17l1.14-2.82h3.48c1.16,0,1.74.5,1.74,1.5,0,.16-.12.48-.36.96s-.36.82-.36,1.02c0,.48.16.85.48,1.11.32.26.9.39,1.74.39,1.08,0,2.09-.18,3.03-.54.94-.36,1.76-.85,2.46-1.47.7-.62,1.25-1.36,1.65-2.22.4-.86.6-1.77.6-2.73,0-1.48-.27-2.92-.81-4.32-.54-1.4-1.12-2.79-1.74-4.17-.62-1.38-1.2-2.77-1.74-4.17-.54-1.4-.81-2.84-.81-4.32Z"/><path d="M1329.4,159.43l-16.56,40.02h-3.36c-.6,0-1.08-.1-1.44-.3-.36-.2-.54-.54-.54-1.02,0-.2.04-.41.12-.63.08-.22.14-.37.18-.45l15.6-37.62h6Z"/><path d="M1346.56,159.43c3.24,0,5.68.84,7.32,2.52,1.64,1.68,2.46,3.9,2.46,6.66,0,1.56-.33,3.17-.99,4.83-.66,1.66-1.59,3.23-2.79,4.71-1.2,1.48-2.65,2.79-4.35,3.93-1.7,1.14-3.59,1.97-5.67,2.49l4.98,16.26c.04.16.07.27.09.33.02.06.03.17.03.33,0,.36-.03.69-.09.99-.06.3-.37.55-.93.75l-3.84,1.2-6.48-20.16-6.3,15.18h-3.48c-.64,0-1.15-.1-1.53-.3-.38-.2-.57-.54-.57-1.02,0-.2.03-.38.09-.54.06-.16.13-.34.21-.54l13.26-31.98c-1.24-.08-1.86-.52-1.86-1.32,0-.36.08-.72.24-1.08l1.38-3.24h8.82ZM1344.16,165.19l-5.7,13.86c.08,0,.23.02.45.06.22.04.37.06.45.06,1.32,0,2.48-.13,3.48-.39,1-.26,2.02-.83,3.06-1.71,1.32-1.12,2.4-2.43,3.24-3.93s1.26-2.81,1.26-3.93c0-1.28-.25-2.27-.75-2.97-.5-.7-1.39-1.05-2.67-1.05h-2.82Z"/><path d="M1384.9,159.43l-2.34,5.64h-10.8l-4.8,11.58h11.46l-2.34,5.64h-11.46l-4.8,11.52h12.9l-2.34,5.64h-10.8c-.96,0-1.79-.15-2.49-.45-.7-.3-1.28-.69-1.74-1.17s-.8-1.01-1.02-1.59c-.22-.58-.33-1.17-.33-1.77,0-.44.03-.8.09-1.08.06-.28.17-.62.33-1.02l11.28-27.3c-.48-.08-.88-.21-1.2-.39-.32-.18-.48-.49-.48-.93,0-.2.03-.38.09-.54.06-.16.13-.34.21-.54l1.32-3.24h19.26Z"/><path d="M1388.86,170.89c0-1.6.32-3.16.96-4.68.64-1.52,1.57-2.87,2.79-4.05,1.22-1.18,2.72-2.13,4.5-2.85,1.78-.72,3.79-1.08,6.03-1.08,1.92,0,3.44.34,4.56,1.02,1.12.68,1.68,1.54,1.68,2.58,0,1.12-.2,2.16-.6,3.12l-1.62,3.9h-3.66c-1.08,0-1.62-.44-1.62-1.32,0-.48.15-.97.45-1.47.3-.5.45-1.03.45-1.59,0-.24-.14-.41-.42-.51-.28-.1-.56-.15-.84-.15-.72,0-1.47.17-2.25.51-.78.34-1.49.81-2.13,1.41-.64.6-1.16,1.3-1.56,2.1-.4.8-.6,1.64-.6,2.52,0,1.32.27,2.65.81,3.99.54,1.34,1.12,2.73,1.74,4.17s1.2,2.94,1.74,4.5.81,3.22.81,4.98-.43,3.54-1.29,5.1-1.96,2.9-3.3,4.02c-1.34,1.12-2.81,1.99-4.41,2.61s-3.14.93-4.62.93c-1.56,0-2.88-.19-3.96-.57-1.08-.38-1.95-.86-2.61-1.44-.66-.58-1.14-1.19-1.44-1.83-.3-.64-.45-1.22-.45-1.74,0-.48,0-.89.03-1.23.02-.34.13-.73.33-1.17l1.14-2.82h3.48c1.16,0,1.74.5,1.74,1.5,0,.16-.12.48-.36.96s-.36.82-.36,1.02c0,.48.16.85.48,1.11.32.26.9.39,1.74.39,1.08,0,2.09-.18,3.03-.54.94-.36,1.76-.85,2.46-1.47.7-.62,1.25-1.36,1.65-2.22.4-.86.6-1.77.6-2.73,0-1.48-.27-2.92-.81-4.32-.54-1.4-1.12-2.79-1.74-4.17-.62-1.38-1.2-2.77-1.74-4.17-.54-1.4-.81-2.84-.81-4.32Z"/><path d="M41.41,38.83c0-4.9.98-9.69,2.94-14.35,1.96-4.66,4.81-8.8,8.56-12.42,3.74-3.62,8.34-6.53,13.8-8.74,5.46-2.21,11.62-3.31,18.49-3.31,5.89,0,10.55,1.04,13.98,3.13,3.43,2.09,5.15,4.72,5.15,7.91,0,3.44-.62,6.62-1.84,9.57l-4.97,11.96h-11.22c-3.31,0-4.97-1.35-4.97-4.05,0-1.47.46-2.97,1.38-4.51.92-1.53,1.38-3.16,1.38-4.88,0-.74-.43-1.26-1.29-1.56-.86-.3-1.72-.46-2.58-.46-2.21,0-4.51.52-6.9,1.56-2.39,1.04-4.57,2.48-6.53,4.32-1.96,1.84-3.56,3.99-4.78,6.44-1.23,2.46-1.84,5.03-1.84,7.73,0,4.05.83,8.13,2.48,12.24,1.66,4.11,3.43,8.37,5.34,12.79,1.9,4.42,3.68,9.02,5.34,13.8,1.66,4.78,2.48,9.88,2.48,15.27s-1.32,10.86-3.96,15.64c-2.64,4.78-6.01,8.9-10.12,12.33-4.11,3.44-8.62,6.1-13.52,8-4.91,1.9-9.63,2.85-14.17,2.85-4.78,0-8.83-.58-12.14-1.75-3.31-1.17-5.98-2.64-8-4.42-2.02-1.78-3.5-3.65-4.42-5.61-.92-1.96-1.38-3.74-1.38-5.34,0-1.47.03-2.73.09-3.77.06-1.04.4-2.24,1.01-3.59l3.5-8.65h10.67c3.56,0,5.34,1.54,5.34,4.6,0,.49-.37,1.47-1.1,2.94s-1.1,2.52-1.1,3.13c0,1.47.49,2.61,1.47,3.4.98.8,2.76,1.2,5.34,1.2,3.31,0,6.41-.55,9.29-1.66,2.88-1.1,5.4-2.6,7.54-4.51,2.15-1.9,3.83-4.17,5.06-6.81,1.22-2.64,1.84-5.43,1.84-8.37,0-4.54-.83-8.95-2.48-13.25-1.66-4.29-3.44-8.56-5.34-12.79-1.9-4.23-3.68-8.49-5.34-12.79-1.66-4.29-2.48-8.71-2.48-13.25Z"/><path d="M153.66,3.68l-1.29,73.6L182.73,3.68h18.58l-50.79,122.73h-11.22c-2.21,0-3.59-.46-4.14-1.38-.55-.92-.83-2.24-.83-3.96l.92-73.05-32.39,78.39h-10.3c-1.84,0-3.31-.3-4.42-.92-1.1-.61-1.66-1.66-1.66-3.13,0-.61.12-1.26.37-1.93.24-.67.43-1.13.55-1.38L135.26,3.68h18.4Z"/><path d="M283.75,3.68l-7.18,17.3h-33.12l-14.72,35.51h35.15l-7.18,17.3h-35.15l-14.72,35.33h39.56l-7.18,17.3h-33.12c-2.94,0-5.49-.46-7.64-1.38-2.15-.92-3.93-2.12-5.34-3.59-1.41-1.47-2.46-3.1-3.13-4.88-.68-1.78-1.01-3.59-1.01-5.43,0-1.35.09-2.45.28-3.31.18-.86.52-1.9,1.01-3.13l34.59-83.72c-1.47-.24-2.7-.64-3.68-1.2-.98-.55-1.47-1.5-1.47-2.85,0-.61.09-1.16.28-1.66.18-.49.4-1.04.64-1.66l4.05-9.94h59.07Z"/><path d="M354.78,3.13l-14.72,123.29h-17.85l4.78-41.22h-27.6l-27.79,41.22h-12.51c-1.84,0-3.01-.46-3.5-1.38-.49-.92-.74-2.05-.74-3.4,0-.37.15-.86.46-1.47.31-.61.58-1.04.83-1.29l22.08-33.67c-1.6-.49-2.7-1.01-3.31-1.56-.62-.55-.92-1.62-.92-3.22,0-.49.12-1.01.37-1.56.24-.55.49-.95.74-1.2l6.81-10.12h8.28l35.88-54.28c2.21-3.31,4.54-5.82,6.99-7.54,2.45-1.72,5.76-2.58,9.94-2.58h11.78ZM310.98,67.53h18.22l4.23-34.23-22.45,34.23Z"/><path d="M421.94,3.68l-17.11,41.4L450.83,3.68h25.03l-61.83,57.59,23.92,67.9c.24.61.43,1.1.55,1.47.12.37.18.86.18,1.47,0,1.47-.22,2.42-.64,2.85-.43.43-1.32.89-2.67,1.38l-11.78,4.23-23.74-66.43-11.22,9.94-17.48,42.32h-10.3c-1.84,0-3.31-.3-4.42-.92-1.1-.61-1.66-1.66-1.66-3.13,0-.61.12-1.26.37-1.93.24-.67.43-1.13.55-1.38L403.54,3.68h18.4Z"/><path d="M546.14,3.68l-7.18,17.3h-33.12l-14.72,35.51h35.15l-7.18,17.3h-35.15l-14.72,35.33h39.56l-7.18,17.3h-33.12c-2.94,0-5.49-.46-7.64-1.38-2.15-.92-3.93-2.12-5.34-3.59-1.41-1.47-2.46-3.1-3.13-4.88-.68-1.78-1.01-3.59-1.01-5.43,0-1.35.09-2.45.28-3.31.18-.86.52-1.9,1.01-3.13l34.59-83.72c-1.47-.24-2.7-.64-3.68-1.2-.98-.55-1.47-1.5-1.47-2.85,0-.61.09-1.16.28-1.66.18-.49.4-1.04.64-1.66l4.05-9.94h59.07Z"/><path d="M597.11,3.68c9.94,0,17.42,2.58,22.45,7.73,5.03,5.15,7.54,11.96,7.54,20.42,0,4.78-1.01,9.72-3.04,14.81-2.02,5.09-4.88,9.91-8.56,14.44-3.68,4.54-8.13,8.56-13.34,12.05-5.22,3.5-11.01,6.04-17.39,7.64l15.27,49.87c.12.49.21.83.28,1.01.06.18.09.52.09,1.01,0,1.1-.09,2.12-.28,3.04s-1.14,1.68-2.85,2.3l-11.78,3.68-19.87-61.83-19.32,46.55h-10.67c-1.96,0-3.53-.3-4.69-.92-1.17-.61-1.75-1.66-1.75-3.13,0-.61.09-1.16.28-1.66.18-.49.4-1.04.64-1.66l40.67-98.08c-3.8-.24-5.7-1.59-5.7-4.05,0-1.1.24-2.21.74-3.31l4.23-9.94h27.05ZM589.75,21.35l-17.48,42.51c.24,0,.7.06,1.38.18.67.12,1.13.18,1.38.18,4.05,0,7.6-.4,10.67-1.2,3.06-.8,6.19-2.54,9.38-5.24,4.05-3.43,7.36-7.45,9.94-12.05,2.58-4.6,3.86-8.62,3.86-12.05,0-3.92-.77-6.96-2.3-9.11-1.54-2.15-4.26-3.22-8.19-3.22h-8.65Z"/><path d="M687.09,3.68l-21.9,52.81h28.52l21.9-52.81h18.4l-50.79,122.73h-10.3c-1.84,0-3.31-.3-4.42-.92-1.1-.61-1.66-1.66-1.66-3.13,0-.61.12-1.26.37-1.93.24-.67.43-1.13.55-1.38l18.77-45.27h-28.52l-21.71,52.63h-10.3c-1.84,0-3.31-.3-4.42-.92-1.1-.61-1.66-1.66-1.66-3.13,0-.61.12-1.26.37-1.93.24-.67.43-1.13.55-1.38l18.77-45.08c-3.44.25-5.15-1.16-5.15-4.23,0-.98.12-1.78.37-2.39l4.6-10.86h7.36l21.9-52.81h18.4Z"/><path d="M777.8,3.68l-34.04,82.07c-.86,1.96-1.56,4.05-2.12,6.26-.55,2.21-.83,4.42-.83,6.62,0,4.17.95,7.36,2.85,9.57,1.9,2.21,4.26,3.31,7.08,3.31,5.4,0,10.06-2.33,13.98-6.99,3.92-4.66,7.67-11.35,11.22-20.06L809.45,3.68h18.58l-37.17,89.61c-5.15,12.39-11.38,21.59-18.68,27.6-7.3,6.01-15,9.02-23.09,9.02s-14.17-2.61-18.95-7.82-7.18-12.3-7.18-21.25c0-6.38,1.35-12.82,4.05-19.32L759.4,3.68h18.4Z"/><path d="M906.98,3.68l-7.18,17.3h-33.12l-14.72,35.51h35.15l-7.18,17.3h-35.15l-14.72,35.33h39.56l-7.18,17.3h-33.12c-2.94,0-5.49-.46-7.64-1.38-2.15-.92-3.93-2.12-5.34-3.59-1.41-1.47-2.46-3.1-3.13-4.88-.68-1.78-1.01-3.59-1.01-5.43,0-1.35.09-2.45.28-3.31.18-.86.52-1.9,1.01-3.13l34.59-83.72c-1.47-.24-2.7-.64-3.68-1.2-.98-.55-1.47-1.5-1.47-2.85,0-.61.09-1.16.28-1.66.18-.49.4-1.04.64-1.66l4.05-9.94h59.07Z"/><path d="M919.12,38.83c0-4.9.98-9.69,2.94-14.35,1.96-4.66,4.81-8.8,8.56-12.42,3.74-3.62,8.34-6.53,13.8-8.74,5.46-2.21,11.62-3.31,18.49-3.31,5.89,0,10.55,1.04,13.98,3.13,3.43,2.09,5.15,4.72,5.15,7.91,0,3.44-.62,6.62-1.84,9.57l-4.97,11.96h-11.22c-3.31,0-4.97-1.35-4.97-4.05,0-1.47.46-2.97,1.38-4.51.92-1.53,1.38-3.16,1.38-4.88,0-.74-.43-1.26-1.29-1.56-.86-.3-1.72-.46-2.58-.46-2.21,0-4.51.52-6.9,1.56-2.39,1.04-4.57,2.48-6.53,4.32-1.96,1.84-3.56,3.99-4.78,6.44-1.23,2.46-1.84,5.03-1.84,7.73,0,4.05.83,8.13,2.48,12.24,1.66,4.11,3.43,8.37,5.34,12.79,1.9,4.42,3.68,9.02,5.34,13.8,1.66,4.78,2.48,9.88,2.48,15.27s-1.32,10.86-3.96,15.64c-2.64,4.78-6.01,8.9-10.12,12.33-4.11,3.44-8.62,6.1-13.52,8-4.91,1.9-9.63,2.85-14.17,2.85-4.78,0-8.83-.58-12.14-1.75-3.31-1.17-5.98-2.64-8-4.42-2.02-1.78-3.5-3.65-4.42-5.61-.92-1.96-1.38-3.74-1.38-5.34,0-1.47.03-2.73.09-3.77.06-1.04.4-2.24,1.01-3.59l3.5-8.65h10.67c3.56,0,5.34,1.54,5.34,4.6,0,.49-.37,1.47-1.1,2.94s-1.1,2.52-1.1,3.13c0,1.47.49,2.61,1.47,3.4.98.8,2.76,1.2,5.34,1.2,3.31,0,6.41-.55,9.29-1.66,2.88-1.1,5.4-2.6,7.54-4.51,2.15-1.9,3.83-4.17,5.06-6.81,1.22-2.64,1.84-5.43,1.84-8.37,0-4.54-.83-8.95-2.48-13.25-1.66-4.29-3.44-8.56-5.34-12.79-1.9-4.23-3.68-8.49-5.34-12.79-1.66-4.29-2.48-8.71-2.48-13.25Z"/></g></svg>
