<?xml version="1.0" encoding="UTF-8"?><svg id="Layer_2" xmlns="http://www.w3.org/2000/svg" viewBox="0 0 1409.38 213.32"><g id="Layer_1-2"><path d="M35.74,39.78c0-5.03,1-9.93,3.02-14.7,2.01-4.78,4.93-9.02,8.77-12.73,3.83-3.71,8.55-6.69,14.14-8.96,5.59-2.26,11.91-3.39,18.95-3.39,6.03,0,10.81,1.07,14.33,3.2,3.52,2.14,5.28,4.84,5.28,8.11,0,3.52-.63,6.79-1.89,9.8l-5.09,12.25h-11.5c-3.39,0-5.09-1.38-5.09-4.15,0-1.51.47-3.05,1.41-4.62.94-1.57,1.41-3.23,1.41-5,0-.75-.44-1.29-1.32-1.6-.88-.31-1.76-.47-2.64-.47-2.26,0-4.62.54-7.07,1.6-2.45,1.07-4.68,2.54-6.69,4.43-2.01,1.89-3.65,4.09-4.9,6.6-1.26,2.52-1.89,5.16-1.89,7.92,0,4.15.85,8.33,2.54,12.54,1.7,4.21,3.52,8.58,5.47,13.1,1.95,4.52,3.77,9.24,5.47,14.14,1.7,4.9,2.55,10.12,2.55,15.65s-1.35,11.12-4.05,16.02c-2.7,4.9-6.16,9.11-10.37,12.63-4.21,3.52-8.83,6.25-13.86,8.2-5.03,1.95-9.87,2.92-14.52,2.92-4.9,0-9.05-.6-12.44-1.79-3.39-1.2-6.13-2.7-8.2-4.52-2.07-1.82-3.58-3.74-4.52-5.75-.94-2.01-1.41-3.83-1.41-5.47,0-1.51.03-2.8.09-3.86.06-1.07.41-2.29,1.04-3.68l3.58-8.86h10.93c3.64,0,5.47,1.57,5.47,4.71,0,.5-.38,1.51-1.13,3.02-.75,1.51-1.13,2.58-1.13,3.21,0,1.51.5,2.67,1.51,3.49,1,.82,2.83,1.23,5.47,1.23,3.39,0,6.57-.57,9.52-1.7,2.95-1.13,5.53-2.67,7.73-4.62,2.2-1.95,3.93-4.27,5.18-6.98,1.25-2.7,1.89-5.56,1.89-8.58,0-4.65-.85-9.17-2.55-13.57-1.7-4.4-3.52-8.77-5.47-13.1-1.95-4.34-3.77-8.7-5.47-13.1-1.7-4.4-2.54-8.92-2.54-13.57Z"/><path d="M150.74,3.77l-1.32,75.41L180.53,3.77h19.04l-52.03,125.75h-11.5c-2.26,0-3.68-.47-4.24-1.41-.57-.94-.85-2.29-.85-4.05l.94-74.84-33.18,80.31h-10.56c-1.89,0-3.39-.31-4.52-.94-1.13-.63-1.7-1.7-1.7-3.21,0-.63.12-1.29.38-1.98.25-.69.44-1.16.57-1.41L131.89,3.77h18.85Z"/><path d="M284.03,3.77l-7.35,17.72h-33.93l-15.08,36.39h36.01l-7.35,17.72h-36.01l-15.08,36.2h40.53l-7.35,17.72h-33.93c-3.02,0-5.63-.47-7.82-1.41-2.2-.94-4.02-2.17-5.47-3.68-1.45-1.51-2.52-3.17-3.21-5-.69-1.82-1.04-3.68-1.04-5.56,0-1.38.09-2.51.28-3.39.19-.88.53-1.95,1.04-3.21l35.44-85.78c-1.51-.25-2.77-.66-3.77-1.23-1.01-.57-1.51-1.54-1.51-2.92,0-.63.09-1.19.28-1.7.19-.5.41-1.07.66-1.7l4.15-10.18h60.52Z"/><path d="M356.8,3.2l-15.08,126.31h-18.29l4.9-42.23h-28.28l-28.47,42.23h-12.82c-1.89,0-3.08-.47-3.58-1.41-.5-.94-.75-2.1-.75-3.49,0-.38.16-.88.47-1.51.31-.63.59-1.07.85-1.32l22.62-34.5c-1.63-.5-2.77-1.04-3.39-1.6-.63-.57-.94-1.66-.94-3.3,0-.5.12-1.04.38-1.6.25-.57.5-.97.75-1.23l6.98-10.37h8.48l36.76-55.61c2.26-3.39,4.65-5.97,7.16-7.73,2.51-1.76,5.91-2.64,10.18-2.64h12.07ZM311.93,69.19h18.66l4.34-35.07-23,35.07Z"/><path d="M425.6,3.77l-17.53,42.42L455.2,3.77h25.64l-63.34,59.01,24.51,69.57c.25.63.44,1.13.57,1.51.12.38.19.88.19,1.51,0,1.51-.22,2.48-.66,2.92-.44.44-1.35.91-2.73,1.41l-12.07,4.34-24.32-68.06-11.5,10.18-17.91,43.36h-10.56c-1.89,0-3.39-.31-4.52-.94-1.13-.63-1.7-1.7-1.7-3.21,0-.63.12-1.29.38-1.98.25-.69.44-1.16.57-1.41L406.75,3.77h18.85Z"/><path d="M552.86,3.77l-7.35,17.72h-33.93l-15.08,36.39h36.01l-7.35,17.72h-36.01l-15.08,36.2h40.53l-7.35,17.72h-33.93c-3.02,0-5.63-.47-7.82-1.41-2.2-.94-4.02-2.17-5.47-3.68-1.45-1.51-2.52-3.17-3.21-5-.69-1.82-1.04-3.68-1.04-5.56,0-1.38.09-2.51.28-3.39.19-.88.53-1.95,1.04-3.21l35.44-85.78c-1.51-.25-2.77-.66-3.77-1.23-1.01-.57-1.51-1.54-1.51-2.92,0-.63.09-1.19.28-1.7.19-.5.41-1.07.66-1.7l4.15-10.18h60.52Z"/><path d="M605.08,3.77c10.18,0,17.84,2.64,23,7.92,5.15,5.28,7.73,12.25,7.73,20.93,0,4.9-1.04,9.96-3.11,15.18-2.07,5.22-5,10.15-8.77,14.8-3.77,4.65-8.33,8.77-13.67,12.35-5.34,3.58-11.28,6.19-17.82,7.82l15.65,51.09c.12.5.22.85.28,1.04.06.19.09.53.09,1.04,0,1.13-.09,2.17-.28,3.11-.19.94-1.16,1.73-2.92,2.36l-12.07,3.77-20.36-63.34-19.79,47.7h-10.93c-2.01,0-3.61-.31-4.81-.94-1.2-.63-1.79-1.7-1.79-3.21,0-.63.09-1.19.28-1.7.19-.5.41-1.07.66-1.7l41.66-100.48c-3.9-.25-5.84-1.63-5.84-4.15,0-1.13.25-2.26.75-3.39l4.34-10.18h27.71ZM597.54,21.87l-17.91,43.55c.25,0,.72.06,1.41.19.69.13,1.16.19,1.41.19,4.15,0,7.79-.41,10.93-1.23,3.14-.82,6.34-2.61,9.61-5.37,4.15-3.52,7.54-7.64,10.18-12.35s3.96-8.83,3.96-12.35c0-4.02-.79-7.13-2.36-9.33-1.57-2.2-4.37-3.3-8.39-3.3h-8.86Z"/><path d="M697.26,3.77l-22.43,54.11h29.22l22.43-54.11h18.85l-52.03,125.75h-10.56c-1.89,0-3.39-.31-4.52-.94-1.13-.63-1.7-1.7-1.7-3.21,0-.63.12-1.29.38-1.98.25-.69.44-1.16.57-1.41l19.23-46.38h-29.22l-22.25,53.92h-10.56c-1.89,0-3.39-.31-4.52-.94-1.13-.63-1.7-1.7-1.7-3.21,0-.63.12-1.29.38-1.98.25-.69.44-1.16.57-1.41l19.23-46.19c-3.52.25-5.28-1.19-5.28-4.34,0-1,.12-1.82.38-2.45l4.71-11.12h7.54l22.43-54.11h18.85Z"/><path d="M829.98,3.77l-7.35,17.72h-33.93l-15.08,36.39h36.01l-7.35,17.72h-36.01l-15.08,36.2h40.53l-7.35,17.72h-33.93c-3.02,0-5.63-.47-7.82-1.41-2.2-.94-4.02-2.17-5.47-3.68-1.45-1.51-2.52-3.17-3.21-5-.69-1.82-1.04-3.68-1.04-5.56,0-1.38.09-2.51.28-3.39.19-.88.53-1.95,1.04-3.21l35.44-85.78c-1.51-.25-2.77-.66-3.77-1.23-1.01-.57-1.51-1.54-1.51-2.92,0-.63.09-1.19.28-1.7.19-.5.41-1.07.66-1.7l4.15-10.18h60.52Z"/><path d="M902.75,3.2l-15.08,126.31h-18.29l4.9-42.23h-28.28l-28.47,42.23h-12.82c-1.89,0-3.08-.47-3.58-1.41-.5-.94-.75-2.1-.75-3.49,0-.38.16-.88.47-1.51.31-.63.59-1.07.85-1.32l22.62-34.5c-1.63-.5-2.77-1.04-3.39-1.6-.63-.57-.94-1.66-.94-3.3,0-.5.12-1.04.38-1.6.25-.57.5-.97.75-1.23l6.98-10.37h8.48l36.76-55.61c2.26-3.39,4.65-5.97,7.16-7.73,2.51-1.76,5.91-2.64,10.18-2.64h12.07ZM857.89,69.19h18.66l4.34-35.07-23,35.07Z"/><path d="M943.66,3.77h19.61c5.28,0,10.18.44,14.71,1.32,4.52.88,8.92,3.02,13.2,6.41,6.91,5.41,10.37,13.01,10.37,22.81,0,7.67-1.07,15.43-3.21,23.28-2.14,7.86-5.09,15.4-8.86,22.62-3.77,7.23-8.17,13.98-13.2,20.27-5.03,6.29-10.4,11.75-16.12,16.4-5.72,4.65-11.66,8.33-17.82,11.03-6.16,2.7-12.25,4.05-18.29,4.05-2.89,0-5.47-.44-7.73-1.32-2.26-.88-4.15-2.04-5.66-3.49-1.51-1.44-2.67-3.02-3.49-4.71-.82-1.7-1.23-3.42-1.23-5.18s.16-3.23.47-4.43c.31-1.19.78-2.54,1.41-4.05l36.2-87.29c-1.51-.25-2.77-.66-3.77-1.23-1.01-.57-1.51-1.54-1.51-2.92,0-1.13.25-2.26.75-3.39l4.15-10.18ZM962.7,22.25l-37.89,91.43c9.05-.63,16.94-3.61,23.66-8.96,6.72-5.34,13.23-13.23,19.51-23.66,2.26-3.64,4.3-7.04,6.13-10.18,1.82-3.14,3.39-6.28,4.71-9.43,1.32-3.14,2.32-6.44,3.02-9.9.69-3.46,1.04-7.32,1.04-11.59,0-1.89.03-3.86.09-5.94.06-2.07-.79-4.37-2.54-6.88-1.38-2.14-3.02-3.49-4.9-4.05-1.89-.57-4.15-.85-6.79-.85h-6.03Z"/><path d="M1028.12,39.78c0-5.03,1-9.93,3.02-14.7,2.01-4.78,4.93-9.02,8.77-12.73,3.83-3.71,8.55-6.69,14.14-8.96,5.59-2.26,11.91-3.39,18.95-3.39,6.03,0,10.81,1.07,14.33,3.2,3.52,2.14,5.28,4.84,5.28,8.11,0,3.52-.63,6.79-1.89,9.8l-5.09,12.25h-11.5c-3.39,0-5.09-1.38-5.09-4.15,0-1.51.47-3.05,1.41-4.62.94-1.57,1.41-3.23,1.41-5,0-.75-.44-1.29-1.32-1.6-.88-.31-1.76-.47-2.64-.47-2.26,0-4.62.54-7.07,1.6-2.45,1.07-4.68,2.54-6.69,4.43-2.01,1.89-3.65,4.09-4.9,6.6-1.26,2.52-1.89,5.16-1.89,7.92,0,4.15.85,8.33,2.54,12.54,1.7,4.21,3.52,8.58,5.47,13.1,1.95,4.52,3.77,9.24,5.47,14.14,1.7,4.9,2.55,10.12,2.55,15.65s-1.35,11.12-4.05,16.02c-2.7,4.9-6.16,9.11-10.37,12.63-4.21,3.52-8.83,6.25-13.86,8.2-5.03,1.95-9.87,2.92-14.52,2.92-4.9,0-9.05-.6-12.44-1.79-3.39-1.2-6.13-2.7-8.2-4.52-2.07-1.82-3.58-3.74-4.52-5.75-.94-2.01-1.41-3.83-1.41-5.47,0-1.51.03-2.8.09-3.86.06-1.07.41-2.29,1.04-3.68l3.58-8.86h10.93c3.64,0,5.47,1.57,5.47,4.71,0,.5-.38,1.51-1.13,3.02-.75,1.51-1.13,2.58-1.13,3.21,0,1.51.5,2.67,1.51,3.49,1,.82,2.83,1.23,5.47,1.23,3.39,0,6.57-.57,9.52-1.7,2.95-1.13,5.53-2.67,7.73-4.62,2.2-1.95,3.93-4.27,5.18-6.98,1.25-2.7,1.89-5.56,1.89-8.58,0-4.65-.85-9.17-2.55-13.57-1.7-4.4-3.52-8.77-5.47-13.1-1.95-4.34-3.77-8.7-5.47-13.1-1.7-4.4-2.54-8.92-2.54-13.57Z"/><path d="M32.82,168.32l-2.34,5.64h-10.92l-4.8,11.64h11.52l-2.34,5.64h-11.52l-7.08,17.1H1.92c-.56,0-1.02-.1-1.38-.3-.36-.2-.54-.54-.54-1.02,0-.2.04-.41.12-.63.08-.22.14-.37.18-.45l13.26-31.98c-.56-.04-1-.16-1.32-.36-.32-.2-.48-.52-.48-.96,0-.2.03-.38.09-.54.06-.16.13-.34.21-.54l1.32-3.24h19.44Z"/><path d="M48.66,168.32l-16.56,40.02h-3.36c-.6,0-1.08-.1-1.44-.3-.36-.2-.54-.54-.54-1.02,0-.2.04-.41.12-.63.08-.22.14-.37.18-.45l15.6-37.62h6Z"/><path d="M65.58,168.32l-14.22,34.38h13.14l-2.34,5.64h-11.1c-1.68,0-3.03-.43-4.05-1.29-1.02-.86-1.53-2.13-1.53-3.81,0-.6.14-1.22.42-1.86l13.68-33.06h6Z"/><path d="M89.52,168.32l-14.22,34.38h13.14l-2.34,5.64h-11.1c-1.68,0-3.03-.43-4.05-1.29-1.02-.86-1.53-2.13-1.53-3.81,0-.6.14-1.22.42-1.86l13.68-33.06h6Z"/><path d="M128.88,168.32v15.3l10.08-15.3h6.42l-26.16,40.02h-6.48l10.44-15.72v-22.38c0-.64.13-1.12.39-1.44.26-.32.73-.48,1.41-.48h3.9Z"/><path d="M139.26,198.8c0-3.12.57-6.5,1.71-10.14,1.14-3.64,2.87-7.22,5.19-10.74,4.72-7.2,10-10.8,15.84-10.8,1,0,1.96.24,2.88.72.92.48,1.73,1.2,2.43,2.16.7.96,1.26,2.15,1.68,3.57.42,1.42.63,3.05.63,4.89,0,3.04-.54,6.24-1.62,9.6-1.08,3.36-2.7,6.76-4.86,10.2-2.4,3.76-4.88,6.58-7.44,8.46-2.56,1.88-5.32,2.82-8.28,2.82-1.16,0-2.23-.25-3.21-.75-.98-.5-1.84-1.21-2.58-2.13-.74-.92-1.32-2.04-1.74-3.36-.42-1.32-.63-2.82-.63-4.5ZM160.5,173.12c-3.32,0-6.64,2.76-9.96,8.28-3.64,6-5.46,11.48-5.46,16.44,0,1.88.29,3.37.87,4.47.58,1.1,1.39,1.65,2.43,1.65,1.92,0,3.6-.65,5.04-1.95,1.44-1.3,2.92-3.21,4.44-5.73,1.96-3.24,3.47-6.27,4.53-9.09,1.06-2.82,1.59-5.55,1.59-8.19,0-1.96-.33-3.43-.99-4.41-.66-.98-1.49-1.47-2.49-1.47Z"/><path d="M187.74,168.32l-11.1,26.76c-.28.64-.51,1.32-.69,2.04-.18.72-.27,1.44-.27,2.16,0,1.36.31,2.4.93,3.12.62.72,1.39,1.08,2.31,1.08,1.76,0,3.28-.76,4.56-2.28,1.28-1.52,2.5-3.7,3.66-6.54l10.92-26.34h6.06l-12.12,29.22c-1.68,4.04-3.71,7.04-6.09,9-2.38,1.96-4.89,2.94-7.53,2.94s-4.62-.85-6.18-2.55-2.34-4.01-2.34-6.93c0-2.08.44-4.18,1.32-6.3l10.56-25.38h6Z"/><path d="M220.08,168.32c3.24,0,5.68.84,7.32,2.52,1.64,1.68,2.46,3.9,2.46,6.66,0,1.56-.33,3.17-.99,4.83-.66,1.66-1.59,3.23-2.79,4.71-1.2,1.48-2.65,2.79-4.35,3.93-1.7,1.14-3.59,1.97-5.67,2.49l4.98,16.26c.04.16.07.27.09.33.02.06.03.17.03.33,0,.36-.03.69-.09.99-.06.3-.37.55-.93.75l-3.84,1.2-6.48-20.16-6.3,15.18h-3.48c-.64,0-1.15-.1-1.53-.3-.38-.2-.57-.54-.57-1.02,0-.2.03-.38.09-.54.06-.16.13-.34.21-.54l13.26-31.98c-1.24-.08-1.86-.52-1.86-1.32,0-.36.08-.72.24-1.08l1.38-3.24h8.82ZM217.68,174.08l-5.7,13.86c.08,0,.23.02.45.06.22.04.37.06.45.06,1.32,0,2.48-.13,3.48-.39,1-.26,2.02-.83,3.06-1.71,1.32-1.12,2.4-2.43,3.24-3.93.84-1.5,1.26-2.81,1.26-3.93,0-1.28-.25-2.27-.75-2.97-.5-.7-1.39-1.05-2.67-1.05h-2.82Z"/><path d="M257.58,179.78c0-1.6.32-3.16.96-4.68.64-1.52,1.57-2.87,2.79-4.05,1.22-1.18,2.72-2.13,4.5-2.85,1.78-.72,3.79-1.08,6.03-1.08,1.92,0,3.44.34,4.56,1.02,1.12.68,1.68,1.54,1.68,2.58,0,1.12-.2,2.16-.6,3.12l-1.62,3.9h-3.66c-1.08,0-1.62-.44-1.62-1.32,0-.48.15-.97.45-1.47.3-.5.45-1.03.45-1.59,0-.24-.14-.41-.42-.51-.28-.1-.56-.15-.84-.15-.72,0-1.47.17-2.25.51-.78.34-1.49.81-2.13,1.41-.64.6-1.16,1.3-1.56,2.1-.4.8-.6,1.64-.6,2.52,0,1.32.27,2.65.81,3.99.54,1.34,1.12,2.73,1.74,4.17.62,1.44,1.2,2.94,1.74,4.5s.81,3.22.81,4.98-.43,3.54-1.29,5.1c-.86,1.56-1.96,2.9-3.3,4.02-1.34,1.12-2.81,1.99-4.41,2.61-1.6.62-3.14.93-4.62.93-1.56,0-2.88-.19-3.96-.57-1.08-.38-1.95-.86-2.61-1.44-.66-.58-1.14-1.19-1.44-1.83-.3-.64-.45-1.22-.45-1.74,0-.48,0-.89.03-1.23.02-.34.13-.73.33-1.17l1.14-2.82h3.48c1.16,0,1.74.5,1.74,1.5,0,.16-.12.48-.36.96-.24.48-.36.82-.36,1.02,0,.48.16.85.48,1.11.32.26.9.39,1.74.39,1.08,0,2.09-.18,3.03-.54.94-.36,1.76-.85,2.46-1.47.7-.62,1.25-1.36,1.65-2.22.4-.86.6-1.77.6-2.73,0-1.48-.27-2.92-.81-4.32-.54-1.4-1.12-2.79-1.74-4.17-.62-1.38-1.2-2.77-1.74-4.17-.54-1.4-.81-2.84-.81-4.32Z"/><path d="M294.17,168.32l-.42,24,9.9-24h6.06l-16.56,40.02h-3.66c-.72,0-1.17-.15-1.35-.45-.18-.3-.27-.73-.27-1.29l.3-23.82-10.56,25.56h-3.36c-.6,0-1.08-.1-1.44-.3-.36-.2-.54-.54-.54-1.02,0-.2.04-.41.12-.63.08-.22.14-.37.18-.45l15.6-37.62h6Z"/><path d="M336.59,168.32l-2.34,5.64h-10.8l-4.8,11.58h11.46l-2.34,5.64h-11.46l-4.8,11.52h12.9l-2.34,5.64h-10.8c-.96,0-1.79-.15-2.49-.45-.7-.3-1.28-.69-1.74-1.17-.46-.48-.8-1.01-1.02-1.59-.22-.58-.33-1.17-.33-1.77,0-.44.03-.8.09-1.08.06-.28.17-.62.33-1.02l11.28-27.3c-.48-.08-.88-.21-1.2-.39-.32-.18-.48-.49-.48-.93,0-.2.03-.38.09-.54.06-.16.13-.34.21-.54l1.32-3.24h19.26Z"/><path d="M359.75,168.14l-4.8,40.2h-5.82l1.56-13.44h-9l-9.06,13.44h-4.08c-.6,0-.98-.15-1.14-.45-.16-.3-.24-.67-.24-1.11,0-.12.05-.28.15-.48.1-.2.19-.34.27-.42l7.2-10.98c-.52-.16-.88-.33-1.08-.51-.2-.18-.3-.53-.3-1.05,0-.16.04-.33.12-.51.08-.18.16-.31.24-.39l2.22-3.3h2.7l11.7-17.7c.72-1.08,1.48-1.9,2.28-2.46.8-.56,1.88-.84,3.24-.84h3.84ZM345.47,189.14h5.94l1.38-11.16-7.32,11.16Z"/><path d="M381.65,168.32l-5.58,13.5,15-13.5h8.16l-20.16,18.78,7.8,22.14c.08.2.14.36.18.48.04.12.06.28.06.48,0,.48-.07.79-.21.93-.14.14-.43.29-.87.45l-3.84,1.38-7.74-21.66-3.66,3.24-5.7,13.8h-3.36c-.6,0-1.08-.1-1.44-.3-.36-.2-.54-.54-.54-1.02,0-.2.04-.41.12-.63.08-.22.14-.37.18-.45l15.6-37.62h6Z"/><path d="M422.15,168.32l-2.34,5.64h-10.8l-4.8,11.58h11.46l-2.34,5.64h-11.46l-4.8,11.52h12.9l-2.34,5.64h-10.8c-.96,0-1.79-.15-2.49-.45-.7-.3-1.28-.69-1.74-1.17-.46-.48-.8-1.01-1.02-1.59-.22-.58-.33-1.17-.33-1.77,0-.44.03-.8.09-1.08.06-.28.17-.62.33-1.02l11.28-27.3c-.48-.08-.88-.21-1.2-.39-.32-.18-.48-.49-.48-.93,0-.2.03-.38.09-.54.06-.16.13-.34.21-.54l1.32-3.24h19.26Z"/><path d="M438.77,168.32c3.24,0,5.68.84,7.32,2.52,1.64,1.68,2.46,3.9,2.46,6.66,0,1.56-.33,3.17-.99,4.83-.66,1.66-1.59,3.23-2.79,4.71-1.2,1.48-2.65,2.79-4.35,3.93-1.7,1.14-3.59,1.97-5.67,2.49l4.98,16.26c.04.16.07.27.09.33.02.06.03.17.03.33,0,.36-.03.69-.09.99-.06.3-.37.55-.93.75l-3.84,1.2-6.48-20.16-6.3,15.18h-3.48c-.64,0-1.15-.1-1.53-.3-.38-.2-.57-.54-.57-1.02,0-.2.03-.38.09-.54.06-.16.13-.34.21-.54l13.26-31.98c-1.24-.08-1.86-.52-1.86-1.32,0-.36.08-.72.24-1.08l1.38-3.24h8.82ZM436.37,174.08l-5.7,13.86c.08,0,.23.02.45.06.22.04.37.06.45.06,1.32,0,2.48-.13,3.48-.39,1-.26,2.02-.83,3.06-1.71,1.32-1.12,2.4-2.43,3.24-3.93.84-1.5,1.26-2.81,1.26-3.93,0-1.28-.25-2.27-.75-2.97-.5-.7-1.39-1.05-2.67-1.05h-2.82Z"/><path d="M454.67,179.78c0-1.6.32-3.16.96-4.68.64-1.52,1.57-2.87,2.79-4.05,1.22-1.18,2.72-2.13,4.5-2.85,1.78-.72,3.79-1.08,6.03-1.08,1.92,0,3.44.34,4.56,1.02,1.12.68,1.68,1.54,1.68,2.58,0,1.12-.2,2.16-.6,3.12l-1.62,3.9h-3.66c-1.08,0-1.62-.44-1.62-1.32,0-.48.15-.97.45-1.47.3-.5.45-1.03.45-1.59,0-.24-.14-.41-.42-.51-.28-.1-.56-.15-.84-.15-.72,0-1.47.17-2.25.51-.78.34-1.49.81-2.13,1.41-.64.6-1.16,1.3-1.56,2.1-.4.8-.6,1.64-.6,2.52,0,1.32.27,2.65.81,3.99.54,1.34,1.12,2.73,1.74,4.17.62,1.44,1.2,2.94,1.74,4.5s.81,3.22.81,4.98-.43,3.54-1.29,5.1c-.86,1.56-1.96,2.9-3.3,4.02-1.34,1.12-2.81,1.99-4.41,2.61-1.6.62-3.14.93-4.62.93-1.56,0-2.88-.19-3.96-.57-1.08-.38-1.95-.86-2.61-1.44-.66-.58-1.14-1.19-1.44-1.83-.3-.64-.45-1.22-.45-1.74,0-.48,0-.89.03-1.23.02-.34.13-.73.33-1.17l1.14-2.82h3.48c1.16,0,1.74.5,1.74,1.5,0,.16-.12.48-.36.96-.24.48-.36.82-.36,1.02,0,.48.16.85.48,1.11.32.26.9.39,1.74.39,1.08,0,2.09-.18,3.03-.54.94-.36,1.76-.85,2.46-1.47.7-.62,1.25-1.36,1.65-2.22.4-.86.6-1.77.6-2.73,0-1.48-.27-2.92-.81-4.32-.54-1.4-1.12-2.79-1.74-4.17-.62-1.38-1.2-2.77-1.74-4.17-.54-1.4-.81-2.84-.81-4.32Z"/><path d="M508.37,168.38l-6.9,24.9,15.54-23.7c.16-.24.29-.44.39-.6.1-.16.22-.29.36-.39.14-.1.32-.16.54-.18.22-.02.55-.03.99-.03h4.98l-4.26,24.9,12.96-24.9h6.24l-20.34,39.96h-5.82c-.52,0-.95-.11-1.29-.33-.34-.22-.51-.55-.51-.99,0-.16,0-.29.03-.39.02-.1.05-.23.09-.39l5.52-27.12-18.06,29.22h-5.46c-1.2,0-1.8-.46-1.8-1.38,0-.08.02-.24.06-.48.04-.24.08-.4.12-.48l10.8-37.62h5.82Z"/><path d="M554.75,168.32l-16.56,40.02h-3.36c-.6,0-1.08-.1-1.44-.3-.36-.2-.54-.54-.54-1.02,0-.2.04-.41.12-.63.08-.22.14-.37.18-.45l15.6-37.62h6Z"/><path d="M581.75,168.32l-2.34,5.64h-7.26l-14.22,34.38h-3.54c-1.36,0-2.04-.44-2.04-1.32,0-.2.03-.38.09-.54.06-.16.13-.34.21-.54l13.26-31.98h-6c-1.2,0-1.8-.44-1.8-1.32,0-.36.08-.72.24-1.08l1.32-3.24h22.08Z"/><path d="M597.11,168.32l-7.14,17.22h9.3l7.14-17.22h6l-16.56,40.02h-3.36c-.6,0-1.08-.1-1.44-.3-.36-.2-.54-.54-.54-1.02,0-.2.04-.41.12-.63.08-.22.14-.37.18-.45l6.12-14.76h-9.3l-7.08,17.16h-3.36c-.6,0-1.08-.1-1.44-.3-.36-.2-.54-.54-.54-1.02,0-.2.04-.41.12-.63.08-.22.14-.37.18-.45l6.12-14.7c-1.12.08-1.68-.38-1.68-1.38,0-.32.04-.58.12-.78l1.5-3.54h2.4l7.14-17.22h6Z"/><path d="M657.71,168.14l-4.8,40.2h-5.82l1.56-13.44h-9l-9.06,13.44h-4.08c-.6,0-.98-.15-1.14-.45-.16-.3-.24-.67-.24-1.11,0-.12.05-.28.15-.48.1-.2.19-.34.27-.42l7.2-10.98c-.52-.16-.88-.33-1.08-.51-.2-.18-.3-.53-.3-1.05,0-.16.04-.33.12-.51.08-.18.16-.31.24-.39l2.22-3.3h2.7l11.7-17.7c.72-1.08,1.48-1.9,2.28-2.46.8-.56,1.88-.84,3.24-.84h3.84ZM643.43,189.14h5.94l1.38-11.16-7.32,11.16Z"/><path d="M679.61,168.32l-.42,24,9.9-24h6.06l-16.56,40.02h-3.66c-.72,0-1.17-.15-1.35-.45-.18-.3-.27-.73-.27-1.29l.3-23.82-10.56,25.56h-3.36c-.6,0-1.08-.1-1.44-.3-.36-.2-.54-.54-.54-1.02,0-.2.04-.41.12-.63.08-.22.14-.37.18-.45l15.6-37.62h6Z"/><path d="M705.83,168.32v15.3l10.08-15.3h6.42l-26.16,40.02h-6.48l10.44-15.72v-22.38c0-.64.13-1.12.39-1.44.26-.32.73-.48,1.41-.48h3.9Z"/><path d="M762.53,181.04c-.32,0-.64-.08-.96-.24-.32-.16-.48-.34-.48-.54,0-.84.07-1.56.21-2.16.14-.6.21-1.3.21-2.1,0-.92-.18-1.67-.54-2.25-.36-.58-.86-.87-1.5-.87-.6,0-1.32.19-2.16.57-.84.38-1.73.93-2.67,1.65-.94.72-1.88,1.62-2.82,2.7-.94,1.08-1.83,2.34-2.67,3.78-.92,1.6-1.72,3.26-2.4,4.98-.68,1.72-1.24,3.34-1.68,4.86-.44,1.52-.77,2.84-.99,3.96-.22,1.12-.33,1.88-.33,2.28,0,1.88.19,3.35.57,4.41.38,1.06,1.05,1.59,2.01,1.59,1.88,0,3.65-1.04,5.31-3.12,1.66-2.08,3.33-5.04,5.01-8.88h3.84c.56,0,.95.12,1.17.36.22.24.33.62.33,1.14,0,.08-.1.43-.3,1.05-.2.62-.51,1.39-.93,2.31-.42.92-.98,1.96-1.68,3.12-.7,1.16-1.53,2.32-2.49,3.48-1.76,2.12-3.59,3.72-5.49,4.8-1.9,1.08-3.83,1.62-5.79,1.62-1.04,0-2.01-.23-2.91-.69-.9-.46-1.68-1.09-2.34-1.89-.66-.8-1.18-1.75-1.56-2.85-.38-1.1-.57-2.31-.57-3.63,0-1.48.16-3.14.48-4.98.32-1.84.79-3.75,1.41-5.73.62-1.98,1.39-3.98,2.31-6,.92-2.02,1.96-3.97,3.12-5.85,1.12-1.76,2.31-3.31,3.57-4.65,1.26-1.34,2.53-2.47,3.81-3.39,1.28-.92,2.54-1.61,3.78-2.07,1.24-.46,2.4-.69,3.48-.69.8,0,1.64.17,2.52.51.88.34,1.68.85,2.4,1.53.72.68,1.32,1.52,1.8,2.52.48,1,.72,2.16.72,3.48,0,1-.15,1.99-.45,2.97-.3.98-.63,1.95-.99,2.91h-3.36Z"/><path d="M766.19,198.8c0-3.12.57-6.5,1.71-10.14,1.14-3.64,2.87-7.22,5.19-10.74,4.72-7.2,10-10.8,15.84-10.8,1,0,1.96.24,2.88.72.92.48,1.73,1.2,2.43,2.16.7.96,1.26,2.15,1.68,3.57.42,1.42.63,3.05.63,4.89,0,3.04-.54,6.24-1.62,9.6-1.08,3.36-2.7,6.76-4.86,10.2-2.4,3.76-4.88,6.58-7.44,8.46-2.56,1.88-5.32,2.82-8.28,2.82-1.16,0-2.23-.25-3.21-.75-.98-.5-1.84-1.21-2.58-2.13-.74-.92-1.32-2.04-1.74-3.36-.42-1.32-.63-2.82-.63-4.5ZM787.43,173.12c-3.32,0-6.64,2.76-9.96,8.28-3.64,6-5.46,11.48-5.46,16.44,0,1.88.29,3.37.87,4.47.58,1.1,1.39,1.65,2.43,1.65,1.92,0,3.6-.65,5.04-1.95,1.44-1.3,2.92-3.21,4.44-5.73,1.96-3.24,3.47-6.27,4.53-9.09,1.06-2.82,1.59-5.55,1.59-8.19,0-1.96-.33-3.43-.99-4.41-.66-.98-1.49-1.47-2.49-1.47Z"/><path d="M817.31,168.32l-14.22,34.38h13.14l-2.34,5.64h-11.1c-1.68,0-3.03-.43-4.05-1.29-1.02-.86-1.53-2.13-1.53-3.81,0-.6.14-1.22.42-1.86l13.68-33.06h6Z"/><path d="M819.83,198.8c0-3.12.57-6.5,1.71-10.14,1.14-3.64,2.87-7.22,5.19-10.74,4.72-7.2,10-10.8,15.84-10.8,1,0,1.96.24,2.88.72.92.48,1.73,1.2,2.43,2.16.7.96,1.26,2.15,1.68,3.57.42,1.42.63,3.05.63,4.89,0,3.04-.54,6.24-1.62,9.6-1.08,3.36-2.7,6.76-4.86,10.2-2.4,3.76-4.88,6.58-7.44,8.46-2.56,1.88-5.32,2.82-8.28,2.82-1.16,0-2.23-.25-3.21-.75-.98-.5-1.84-1.21-2.58-2.13-.74-.92-1.32-2.04-1.74-3.36-.42-1.32-.63-2.82-.63-4.5ZM841.07,173.12c-3.32,0-6.64,2.76-9.96,8.28-3.64,6-5.46,11.48-5.46,16.44,0,1.88.29,3.37.87,4.47.58,1.1,1.39,1.65,2.43,1.65,1.92,0,3.6-.65,5.04-1.95,1.44-1.3,2.92-3.21,4.44-5.73,1.96-3.24,3.47-6.27,4.53-9.09,1.06-2.82,1.59-5.55,1.59-8.19,0-1.96-.33-3.43-.99-4.41-.66-.98-1.49-1.47-2.49-1.47Z"/><path d="M868.3,168.32l-11.1,26.76c-.28.64-.51,1.32-.69,2.04-.18.72-.27,1.44-.27,2.16,0,1.36.31,2.4.93,3.12.62.72,1.39,1.08,2.31,1.08,1.76,0,3.28-.76,4.56-2.28,1.28-1.52,2.5-3.7,3.66-6.54l10.92-26.34h6.06l-12.12,29.22c-1.68,4.04-3.71,7.04-6.09,9-2.38,1.96-4.89,2.94-7.53,2.94s-4.62-.85-6.18-2.55-2.34-4.01-2.34-6.93c0-2.08.44-4.18,1.32-6.3l10.56-25.38h6Z"/><path d="M900.64,168.32c3.24,0,5.68.84,7.32,2.52,1.64,1.68,2.46,3.9,2.46,6.66,0,1.56-.33,3.17-.99,4.83-.66,1.66-1.59,3.23-2.79,4.71-1.2,1.48-2.65,2.79-4.35,3.93-1.7,1.14-3.59,1.97-5.67,2.49l4.98,16.26c.04.16.07.27.09.33.02.06.03.17.03.33,0,.36-.03.69-.09.99-.06.3-.37.55-.93.75l-3.84,1.2-6.48-20.16-6.3,15.18h-3.48c-.64,0-1.15-.1-1.53-.3-.38-.2-.57-.54-.57-1.02,0-.2.03-.38.09-.54.06-.16.13-.34.21-.54l13.26-31.98c-1.24-.08-1.86-.52-1.86-1.32,0-.36.08-.72.24-1.08l1.38-3.24h8.82ZM898.24,174.08l-5.7,13.86c.08,0,.23.02.45.06.22.04.37.06.45.06,1.32,0,2.48-.13,3.48-.39,1-.26,2.02-.83,3.06-1.71,1.32-1.12,2.4-2.43,3.24-3.93.84-1.5,1.26-2.81,1.26-3.93,0-1.28-.25-2.27-.75-2.97-.5-.7-1.39-1.05-2.67-1.05h-2.82Z"/><path d="M944.38,168.32v15.3l10.08-15.3h6.42l-26.16,40.02h-6.48l10.44-15.72v-22.38c0-.64.13-1.12.39-1.44.26-.32.73-.48,1.41-.48h3.9Z"/><path d="M954.76,198.8c0-3.12.57-6.5,1.71-10.14,1.14-3.64,2.87-7.22,5.19-10.74,4.72-7.2,10-10.8,15.84-10.8,1,0,1.96.24,2.88.72.92.48,1.73,1.2,2.43,2.16.7.96,1.26,2.15,1.68,3.57.42,1.42.63,3.05.63,4.89,0,3.04-.54,6.24-1.62,9.6-1.08,3.36-2.7,6.76-4.86,10.2-2.4,3.76-4.88,6.58-7.44,8.46-2.56,1.88-5.32,2.82-8.28,2.82-1.16,0-2.23-.25-3.21-.75-.98-.5-1.84-1.21-2.58-2.13-.74-.92-1.32-2.04-1.74-3.36-.42-1.32-.63-2.82-.63-4.5ZM976,173.12c-3.32,0-6.64,2.76-9.96,8.28-3.64,6-5.46,11.48-5.46,16.44,0,1.88.29,3.37.87,4.47.58,1.1,1.39,1.65,2.43,1.65,1.92,0,3.6-.65,5.04-1.95,1.44-1.3,2.92-3.21,4.44-5.73,1.96-3.24,3.47-6.27,4.53-9.09,1.06-2.82,1.59-5.55,1.59-8.19,0-1.96-.33-3.43-.99-4.41-.66-.98-1.49-1.47-2.49-1.47Z"/><path d="M1003.24,168.32l-11.1,26.76c-.28.64-.51,1.32-.69,2.04-.18.72-.27,1.44-.27,2.16,0,1.36.31,2.4.93,3.12.62.72,1.39,1.08,2.31,1.08,1.76,0,3.28-.76,4.56-2.28,1.28-1.52,2.5-3.7,3.66-6.54l10.92-26.34h6.06l-12.12,29.22c-1.68,4.04-3.71,7.04-6.09,9-2.38,1.96-4.89,2.94-7.53,2.94s-4.62-.85-6.18-2.55-2.34-4.01-2.34-6.93c0-2.08.44-4.18,1.32-6.3l10.56-25.38h6Z"/><path d="M1035.58,168.32c3.24,0,5.68.84,7.32,2.52,1.64,1.68,2.46,3.9,2.46,6.66,0,1.56-.33,3.17-.99,4.83-.66,1.66-1.59,3.23-2.79,4.71-1.2,1.48-2.65,2.79-4.35,3.93-1.7,1.14-3.59,1.97-5.67,2.49l4.98,16.26c.04.16.07.27.09.33.02.06.03.17.03.33,0,.36-.03.69-.09.99-.06.3-.37.55-.93.75l-3.84,1.2-6.48-20.16-6.3,15.18h-3.48c-.64,0-1.15-.1-1.53-.3-.38-.2-.57-.54-.57-1.02,0-.2.03-.38.09-.54.06-.16.13-.34.21-.54l13.26-31.98c-1.24-.08-1.86-.52-1.86-1.32,0-.36.08-.72.24-1.08l1.38-3.24h8.82ZM1033.18,174.08l-5.7,13.86c.08,0,.23.02.45.06.22.04.37.06.45.06,1.32,0,2.48-.13,3.48-.39,1-.26,2.02-.83,3.06-1.71,1.32-1.12,2.4-2.43,3.24-3.93.84-1.5,1.26-2.81,1.26-3.93,0-1.28-.25-2.27-.75-2.97-.5-.7-1.39-1.05-2.67-1.05h-2.82Z"/><path d="M1086.52,168.32l-7.14,17.22h9.3l7.14-17.22h6l-16.56,40.02h-3.36c-.6,0-1.08-.1-1.44-.3-.36-.2-.54-.54-.54-1.02,0-.2.04-.41.12-.63.08-.22.14-.37.18-.45l6.12-14.76h-9.3l-7.08,17.16h-3.36c-.6,0-1.08-.1-1.44-.3-.36-.2-.54-.54-.54-1.02,0-.2.04-.41.12-.63.08-.22.14-.37.18-.45l6.12-14.7c-1.12.08-1.68-.38-1.68-1.38,0-.32.04-.58.12-.78l1.5-3.54h2.4l7.14-17.22h6Z"/><path d="M1128.76,168.32l-2.34,5.64h-10.8l-4.8,11.58h11.46l-2.34,5.64h-11.46l-4.8,11.52h12.9l-2.34,5.64h-10.8c-.96,0-1.79-.15-2.49-.45-.7-.3-1.28-.69-1.74-1.17-.46-.48-.8-1.01-1.02-1.59-.22-.58-.33-1.17-.33-1.77,0-.44.03-.8.09-1.08.06-.28.17-.62.33-1.02l11.28-27.3c-.48-.08-.88-.21-1.2-.39-.32-.18-.48-.49-.48-.93,0-.2.03-.38.09-.54.06-.16.13-.34.21-.54l1.32-3.24h19.26Z"/><path d="M1151.92,168.14l-4.8,40.2h-5.82l1.56-13.44h-9l-9.06,13.44h-4.08c-.6,0-.98-.15-1.14-.45-.16-.3-.24-.67-.24-1.11,0-.12.05-.28.15-.48.1-.2.19-.34.27-.42l7.2-10.98c-.52-.16-.88-.33-1.08-.51-.2-.18-.3-.53-.3-1.05,0-.16.04-.33.12-.51.08-.18.16-.31.24-.39l2.22-3.3h2.7l11.7-17.7c.72-1.08,1.48-1.9,2.28-2.46.8-.56,1.88-.84,3.24-.84h3.84ZM1137.64,189.14h5.94l1.38-11.16-7.32,11.16Z"/><path d="M1174.06,168.32c3.24,0,5.68.84,7.32,2.52s2.46,3.9,2.46,6.66c0,1.56-.33,3.17-.99,4.83-.66,1.66-1.59,3.23-2.79,4.71-1.2,1.48-2.65,2.79-4.35,3.93-1.7,1.14-3.59,1.97-5.67,2.49l4.98,16.26c.04.16.07.27.09.33.02.06.03.17.03.33,0,.36-.03.69-.09.99-.06.3-.37.55-.93.75l-3.84,1.2-6.48-20.16-6.3,15.18h-3.48c-.64,0-1.15-.1-1.53-.3-.38-.2-.57-.54-.57-1.02,0-.2.03-.38.09-.54.06-.16.13-.34.21-.54l13.26-31.98c-1.24-.08-1.86-.52-1.86-1.32,0-.36.08-.72.24-1.08l1.38-3.24h8.82ZM1171.66,174.08l-5.7,13.86c.08,0,.23.02.45.06.22.04.37.06.45.06,1.32,0,2.48-.13,3.48-.39,1-.26,2.02-.83,3.06-1.71,1.32-1.12,2.4-2.43,3.24-3.93s1.26-2.81,1.26-3.93c0-1.28-.25-2.27-.75-2.97-.5-.7-1.39-1.05-2.67-1.05h-2.82Z"/><path d="M1212.46,168.32l-2.34,5.64h-7.26l-14.22,34.38h-3.54c-1.36,0-2.04-.44-2.04-1.32,0-.2.03-.38.09-.54.06-.16.13-.34.21-.54l13.26-31.98h-6c-1.2,0-1.8-.44-1.8-1.32,0-.36.08-.72.24-1.08l1.32-3.24h22.08Z"/><path d="M1239.52,168.32h6.24c1.68,0,3.24.14,4.68.42,1.44.28,2.84.96,4.2,2.04,2.2,1.72,3.3,4.14,3.3,7.26,0,2.44-.34,4.91-1.02,7.41-.68,2.5-1.62,4.9-2.82,7.2-1.2,2.3-2.6,4.45-4.2,6.45-1.6,2-3.31,3.74-5.13,5.22-1.82,1.48-3.71,2.65-5.67,3.51-1.96.86-3.9,1.29-5.82,1.29-.92,0-1.74-.14-2.46-.42-.72-.28-1.32-.65-1.8-1.11-.48-.46-.85-.96-1.11-1.5s-.39-1.09-.39-1.65.05-1.03.15-1.41c.1-.38.25-.81.45-1.29l11.52-27.78c-.48-.08-.88-.21-1.2-.39s-.48-.49-.48-.93c0-.36.08-.72.24-1.08l1.32-3.24ZM1245.58,174.2l-12.06,29.1c2.88-.2,5.39-1.15,7.53-2.85,2.14-1.7,4.21-4.21,6.21-7.53.72-1.16,1.37-2.24,1.95-3.24.58-1,1.08-2,1.5-3,.42-1,.74-2.05.96-3.15.22-1.1.33-2.33.33-3.69,0-.6,0-1.23.03-1.89.02-.66-.25-1.39-.81-2.19-.44-.68-.96-1.11-1.56-1.29-.6-.18-1.32-.27-2.16-.27h-1.92Z"/><path d="M1288.84,168.32l-2.34,5.64h-10.8l-4.8,11.58h11.46l-2.34,5.64h-11.46l-4.8,11.52h12.9l-2.34,5.64h-10.8c-.96,0-1.79-.15-2.49-.45-.7-.3-1.28-.69-1.74-1.17s-.8-1.01-1.02-1.59c-.22-.58-.33-1.17-.33-1.77,0-.44.03-.8.09-1.08.06-.28.17-.62.33-1.02l11.28-27.3c-.48-.08-.88-.21-1.2-.39-.32-.18-.48-.49-.48-.93,0-.2.03-.38.09-.54.06-.16.13-.34.21-.54l1.32-3.24h19.26Z"/><path d="M1292.8,179.78c0-1.6.32-3.16.96-4.68.64-1.52,1.57-2.87,2.79-4.05,1.22-1.18,2.72-2.13,4.5-2.85,1.78-.72,3.79-1.08,6.03-1.08,1.92,0,3.44.34,4.56,1.02,1.12.68,1.68,1.54,1.68,2.58,0,1.12-.2,2.16-.6,3.12l-1.62,3.9h-3.66c-1.08,0-1.62-.44-1.62-1.32,0-.48.15-.97.45-1.47.3-.5.45-1.03.45-1.59,0-.24-.14-.41-.42-.51-.28-.1-.56-.15-.84-.15-.72,0-1.47.17-2.25.51-.78.34-1.49.81-2.13,1.41-.64.6-1.16,1.3-1.56,2.1-.4.8-.6,1.64-.6,2.52,0,1.32.27,2.65.81,3.99.54,1.34,1.12,2.73,1.74,4.17s1.2,2.94,1.74,4.5.81,3.22.81,4.98-.43,3.54-1.29,5.1-1.96,2.9-3.3,4.02c-1.34,1.12-2.81,1.99-4.41,2.61s-3.14.93-4.62.93c-1.56,0-2.88-.19-3.96-.57-1.08-.38-1.95-.86-2.61-1.44-.66-.58-1.14-1.19-1.44-1.83-.3-.64-.45-1.22-.45-1.74,0-.48,0-.89.03-1.23.02-.34.13-.73.33-1.17l1.14-2.82h3.48c1.16,0,1.74.5,1.74,1.5,0,.16-.12.48-.36.96s-.36.82-.36,1.02c0,.48.16.85.48,1.11.32.26.9.39,1.74.39,1.08,0,2.09-.18,3.03-.54.94-.36,1.76-.85,2.46-1.47.7-.62,1.25-1.36,1.65-2.22.4-.86.6-1.77.6-2.73,0-1.48-.27-2.92-.81-4.32-.54-1.4-1.12-2.79-1.74-4.17-.62-1.38-1.2-2.77-1.74-4.17-.54-1.4-.81-2.84-.81-4.32Z"/><path d="M1329.4,168.32l-16.56,40.02h-3.36c-.6,0-1.08-.1-1.44-.3-.36-.2-.54-.54-.54-1.02,0-.2.04-.41.12-.63.08-.22.14-.37.18-.45l15.6-37.62h6Z"/><path d="M1346.56,168.32c3.24,0,5.68.84,7.32,2.52,1.64,1.68,2.46,3.9,2.46,6.66,0,1.56-.33,3.17-.99,4.83-.66,1.66-1.59,3.23-2.79,4.71-1.2,1.48-2.65,2.79-4.35,3.93-1.7,1.14-3.59,1.97-5.67,2.49l4.98,16.26c.04.16.07.27.09.33.02.06.03.17.03.33,0,.36-.03.69-.09.99-.06.3-.37.55-.93.75l-3.84,1.2-6.48-20.16-6.3,15.18h-3.48c-.64,0-1.15-.1-1.53-.3-.38-.2-.57-.54-.57-1.02,0-.2.03-.38.09-.54.06-.16.13-.34.21-.54l13.26-31.98c-1.24-.08-1.86-.52-1.86-1.32,0-.36.08-.72.24-1.08l1.38-3.24h8.82ZM1344.16,174.08l-5.7,13.86c.08,0,.23.02.45.06.22.04.37.06.45.06,1.32,0,2.48-.13,3.48-.39,1-.26,2.02-.83,3.06-1.71,1.32-1.12,2.4-2.43,3.24-3.93s1.26-2.81,1.26-3.93c0-1.28-.25-2.27-.75-2.97-.5-.7-1.39-1.05-2.67-1.05h-2.82Z"/><path d="M1384.9,168.32l-2.34,5.64h-10.8l-4.8,11.58h11.46l-2.34,5.64h-11.46l-4.8,11.52h12.9l-2.34,5.64h-10.8c-.96,0-1.79-.15-2.49-.45-.7-.3-1.28-.69-1.74-1.17s-.8-1.01-1.02-1.59c-.22-.58-.33-1.17-.33-1.77,0-.44.03-.8.09-1.08.06-.28.17-.62.33-1.02l11.28-27.3c-.48-.08-.88-.21-1.2-.39-.32-.18-.48-.49-.48-.93,0-.2.03-.38.09-.54.06-.16.13-.34.21-.54l1.32-3.24h19.26Z"/><path d="M1388.86,179.78c0-1.6.32-3.16.96-4.68.64-1.52,1.57-2.87,2.79-4.05,1.22-1.18,2.72-2.13,4.5-2.85,1.78-.72,3.79-1.08,6.03-1.08,1.92,0,3.44.34,4.56,1.02,1.12.68,1.68,1.54,1.68,2.58,0,1.12-.2,2.16-.6,3.12l-1.62,3.9h-3.66c-1.08,0-1.62-.44-1.62-1.32,0-.48.15-.97.45-1.47.3-.5.45-1.03.45-1.59,0-.24-.14-.41-.42-.51-.28-.1-.56-.15-.84-.15-.72,0-1.47.17-2.25.51-.78.34-1.49.81-2.13,1.41-.64.6-1.16,1.3-1.56,2.1-.4.8-.6,1.64-.6,2.52,0,1.32.27,2.65.81,3.99.54,1.34,1.12,2.73,1.74,4.17s1.2,2.94,1.74,4.5.81,3.22.81,4.98-.43,3.54-1.29,5.1-1.96,2.9-3.3,4.02c-1.34,1.12-2.81,1.99-4.41,2.61s-3.14.93-4.62.93c-1.56,0-2.88-.19-3.96-.57-1.08-.38-1.95-.86-2.61-1.44-.66-.58-1.14-1.19-1.44-1.83-.3-.64-.45-1.22-.45-1.74,0-.48,0-.89.03-1.23.02-.34.13-.73.33-1.17l1.14-2.82h3.48c1.16,0,1.74.5,1.74,1.5,0,.16-.12.48-.36.96s-.36.82-.36,1.02c0,.48.16.85.48,1.11.32.26.9.39,1.74.39,1.08,0,2.09-.18,3.03-.54.94-.36,1.76-.85,2.46-1.47.7-.62,1.25-1.36,1.65-2.22.4-.86.6-1.77.6-2.73,0-1.48-.27-2.92-.81-4.32-.54-1.4-1.12-2.79-1.74-4.17-.62-1.38-1.2-2.77-1.74-4.17-.54-1.4-.81-2.84-.81-4.32Z"/></g></svg>
